<?xml version="1.0" encoding="UTF-8" standalone="no"?>
<!-- Generator: Adobe Illustrator 24.0.2, SVG Export Plug-In . SVG Version: 6.00 Build 0)  -->

<svg
   version="1.1"
   id="Warstwa_1"
   x="0px"
   y="0px"
   viewBox="0 0 1920 1080"
   style="enable-background:new 0 0 1920 1080;"
   xml:space="preserve"
   sodipodi:docname="logo.svg"
   inkscape:version="1.1 (c68e22c387, 2021-05-23)"
   xmlns:inkscape="http://www.inkscape.org/namespaces/inkscape"
   xmlns:sodipodi="http://sodipodi.sourceforge.net/DTD/sodipodi-0.dtd"
   xmlns="http://www.w3.org/2000/svg"
   xmlns:svg="http://www.w3.org/2000/svg"><defs
   id="defs1214" /><sodipodi:namedview
   id="namedview1212"
   pagecolor="#ffffff"
   bordercolor="#111111"
   borderopacity="1"
   inkscape:pageshadow="0"
   inkscape:pageopacity="0"
   inkscape:pagecheckerboard="1"
   showgrid="false"
   inkscape:zoom="1.0005208"
   inkscape:cx="981.98855"
   inkscape:cy="503.2379"
   inkscape:window-width="2556"
   inkscape:window-height="1404"
   inkscape:window-x="1080"
   inkscape:window-y="32"
   inkscape:window-maximized="1"
   inkscape:current-layer="g1209" />
<style
   type="text/css"
   id="style1043">
	.st0{fill:#FFFFFF;}
	.st1{fill:#4D4D4D;}
</style>
<g
   id="g1209">
	<path
   d="M848.25,506.65c0,20.71,0,41.38,0,62.16c-4.89,0-9.78,0-14.82,0c0-7.48-0.06-14.95,0.02-22.41   c0.08-7.43,0.3-14.85,0.46-22.52c-0.35,2.1-0.6,3.99-0.99,5.85c-1.88,8.99-3.79,17.97-5.72,26.96c-0.52,2.42-0.56,2.41-3.01,2.41   c-3.88,0-7.75,0-11.66,0c-2.9-11.46-5.59-22.87-6.95-33.61c0.22,13.82,0.45,28.55,0.68,43.37c-4.69,0-9.07,0-13.5,0   c0-20.77,0-41.47,0-62.25c0.4-0.02,0.75-0.06,1.11-0.06c6,0,12,0.01,18-0.02c0.81,0,1.17,0.18,1.36,1.06   c1.9,8.86,3.93,17.7,5.76,26.58c0.61,2.96,0.76,6.02,1.12,9.03c0.04,0.3,0.06,0.59,0.33,0.9c0.09-0.85,0.13-1.7,0.27-2.53   c1.43-8.67,2.86-17.33,4.32-26c0.46-2.72,1.02-5.42,1.5-8.13c0.11-0.61,0.27-0.91,0.96-0.91c6.8,0.03,13.6,0.02,20.4,0.03   C847.95,506.54,848.03,506.58,848.25,506.65z"
   id="path1045" />
	<path
   d="M1059.02,531.94c2.53,12.2,1.28,24.53,1.65,36.9c-4.75,0-9.36,0-14.05,0c0-20.74,0-41.44,0-62.21   c0.32-0.04,0.63-0.1,0.93-0.1c4.2-0.01,8.4-0.03,12.6,0.03c0.44,0.01,1.1,0.34,1.27,0.71c4,8.66,8.01,17.32,11.86,26.04   c1.46,3.31,2.53,6.79,3.86,10.2c-1.94-12.23-1.02-24.55-1.27-36.91c4.72,0,9.3,0,14,0c0,20.72,0,41.45,0,62.24   c-0.24,0.03-0.47,0.08-0.69,0.08c-4.6,0.01-9.2,0.02-13.8-0.02c-0.4,0-1.02-0.33-1.16-0.67c-4.41-10.44-8.79-20.89-13.14-31.35   c-0.67-1.61-1.17-3.3-1.75-4.95C1059.23,531.93,1059.12,531.93,1059.02,531.94z"
   id="path1047" />
	<path
   d="M1471.81,506.59c4.82,0,9.41,0,14.05,0c0,20.77,0,41.48,0,62.33c-0.44,0-0.83,0-1.22,0c-4.36,0-8.72-0.02-13.08,0.02   c-0.84,0.01-1.26-0.24-1.59-1.04c-4.91-11.92-10.57-23.53-14.62-35.8c-0.07-0.22-0.19-0.43-0.39-0.64   c2.56,12.36,1.31,24.87,1.67,37.39c-4.77,0-9.39,0-14.09,0c0-20.75,0-41.44,0-62.22c0.29-0.03,0.59-0.1,0.9-0.1   c4.24-0.01,8.48-0.02,12.72,0.02c0.41,0,1.02,0.32,1.18,0.66c4.26,9.33,8.52,18.66,12.67,28.04c1.09,2.47,1.85,5.08,2.91,7.63   C1471.18,530.84,1472.02,518.75,1471.81,506.59z"
   id="path1049" />
	<path
   d="M1396.73,568.86c-0.45,0.02-0.84,0.06-1.23,0.06c-4.32,0-8.64-0.03-12.96,0.03c-0.94,0.01-1.41-0.25-1.77-1.14   c-4.91-11.96-10.59-23.62-14.65-35.93c-0.02-0.07-0.08-0.12-0.34-0.49c1.12,6.45,1.75,12.61,1.74,18.82c-0.01,6.19,0,12.38,0,18.64   c-4.74,0-9.37,0-14.05,0c0-20.75,0-41.45,0-62.22c0.26-0.04,0.53-0.1,0.8-0.1c4.24-0.01,8.48-0.02,12.72,0.02   c0.42,0,1.06,0.29,1.21,0.63c4.44,9.78,8.86,19.57,13.19,29.39c0.96,2.17,1.58,4.49,2.24,6.41c-0.3-5.76-0.75-11.83-0.91-17.91   c-0.16-6.11-0.04-12.23-0.04-18.45c4.71,0,9.35,0,14.06,0C1396.73,527.37,1396.73,548.07,1396.73,568.86z"
   id="path1051" />
	<path
   id="path1053"
   d="M 1301.5605 506.5293 C 1301.3005 506.5293 1301.0308 506.61039 1300.8008 506.65039 L 1300.8008 568.84961 L 1316.4102 568.84961 L 1316.4102 543.98047 C 1317.7702 544.06047 1318.9606 544.08094 1320.1406 544.21094 C 1322.1406 544.44094 1323.4005 545.60094 1324.0605 547.46094 C 1324.2605 548.02094 1324.4596 548.58992 1324.5996 549.16992 C 1326.0996 555.37992 1327.5991 561.59031 1329.0391 567.82031 C 1329.2391 568.73031 1329.6205 568.94945 1330.4805 568.93945 C 1335.2805 568.89945 1340.0809 568.92992 1344.8809 568.91992 C 1345.2209 568.91992 1345.5595 568.86008 1345.9395 568.83008 C 1345.9095 568.58008 1345.9091 568.41953 1345.8691 568.26953 C 1344.4991 563.00953 1343.2502 557.71977 1341.7402 552.50977 C 1340.3702 547.77977 1339.1398 542.84961 1333.8398 540.59961 C 1334.7698 540.22961 1335.5904 539.91984 1336.4004 539.58984 C 1340.3504 537.99984 1342.6703 535.03969 1343.5703 530.92969 C 1344.3703 527.24969 1344.4201 523.56961 1343.8301 519.84961 C 1342.9101 514.08961 1339.7209 510.16039 1334.2109 508.40039 C 1331.3509 507.48039 1328.3005 506.8207 1325.3105 506.7207 C 1317.4005 506.4607 1309.4805 506.5593 1301.5605 506.5293 z M 1320.7754 519.56836 C 1321.0555 519.56875 1321.3359 519.57153 1321.6152 519.57617 C 1321.6165 519.57619 1321.6178 519.57615 1321.6191 519.57617 C 1322.1765 519.58548 1322.733 519.60608 1323.2891 519.64062 C 1323.293 519.64087 1323.2969 519.64038 1323.3008 519.64062 C 1325.7908 519.80062 1327.2792 521.2793 1327.4492 523.7793 C 1327.5592 525.5093 1327.5109 527.29977 1327.2109 529.00977 C 1326.8009 531.33977 1325.3893 532.43906 1323.0293 532.53906 C 1323.0259 532.53921 1323.0229 532.53892 1323.0195 532.53906 C 1322.5328 532.5613 1322.0473 532.57591 1321.5605 532.58398 C 1321.0705 532.59218 1320.5798 532.59567 1320.0898 532.5957 C 1320.0866 532.5957 1320.0833 532.5957 1320.0801 532.5957 C 1319.1033 532.5957 1318.1271 532.58496 1317.1504 532.58984 C 1317.1458 532.58984 1317.1413 532.58987 1317.1367 532.58984 C 1316.954 532.58862 1316.7734 532.56227 1316.543 532.54297 C 1316.5264 532.54156 1316.5171 532.5404 1316.5 532.53906 C 1316.4961 532.53876 1316.4941 532.53936 1316.4902 532.53906 C 1316.5002 528.23906 1316.5 523.98938 1316.5 519.60938 C 1317.66 519.60938 1318.8009 519.58227 1319.9297 519.57227 C 1320.2122 519.56977 1320.494 519.56797 1320.7754 519.56836 z " />
	<path
   d="M957.91,506.59c5.19,0,10.33,0,15.68,0c0,0.47,0,0.94,0,1.4c0,6.72,0.02,13.44-0.02,20.15c-0.01,0.98,0.26,1.3,1.27,1.28   c3.39-0.06,6.78-0.02,10.31-0.02c0-7.64,0-15.18,0-22.8c5.27,0,10.41,0,15.61,0c0,20.73,0,41.42,0,62.22c-5.13,0-10.26,0-15.53,0   c0-8.65,0-17.3,0-26.05c-3.91,0-7.68,0-11.61,0c0,8.67,0,17.32,0,26.06c-5.33,0-10.5,0-15.71,0   C957.91,548.07,957.91,527.37,957.91,506.59z"
   id="path1055" />
	<path
   d="M1528.64,565.48c-2.44,2.63-5.28,4.19-8.61,4.44c-9.76,0.73-18.39-2.68-22.41-13.36c-1.84-4.89-2.5-9.98-2.71-15.15   c-0.26-6.61-0.05-13.19,1.77-19.61c1.39-4.9,3.65-9.29,7.9-12.39c2.89-2.11,6.19-3.12,9.67-3.59c5.63-0.77,11.24-0.76,16.71,1.06   c3.21,1.06,6.79,3.15,9.06,5.26c-2.81,3.7-5.62,7.4-8.42,11.09c-1.59-1.11-3.04-2.26-4.61-3.19c-3.29-1.95-6.8-1.86-10.3-0.7   c-1.76,0.58-2.62,2.15-3.21,3.82c-1.13,3.17-1.39,6.51-1.36,9.81c0.05,5.23,0.34,10.45,0.67,15.67c0.09,1.36,0.6,2.73,1.09,4.03   c0.89,2.38,2.64,3.7,5.22,3.98c2.02,0.22,3.99,0.25,5.88-0.6c0.34-0.15,0.8-0.57,0.8-0.87c0.06-2.95,0.04-5.9,0.04-9.01   c-2.05,0-3.98,0-5.99,0c0-4.33,0-8.5,0-12.75c7.15,0,14.24,0,21.43,0c0,11.79,0,23.57,0,35.52c-0.78,0-1.56,0-2.35,0   c-2.6,0-5.2-0.02-7.8,0.01c-0.7,0.01-1.1-0.18-1.34-0.87C1529.48,567.25,1529.07,566.47,1528.64,565.48z"
   id="path1057" />
	<path
   id="path1059"
   d="M 1263.4297 506.5 C 1262.5597 506.49 1262.2998 506.82961 1262.0898 507.59961 C 1256.9398 526.33961 1251.7696 545.08031 1246.5996 563.82031 C 1246.1496 565.46031 1245.72 567.09961 1245.25 568.84961 L 1261.1602 568.84961 C 1261.2502 568.50961 1261.3595 568.17008 1261.4395 567.83008 C 1262.0695 565.06008 1262.7308 562.3093 1263.3008 559.5293 C 1263.4608 558.7493 1263.7508 558.49 1264.5508 558.5 C 1267.9508 558.54 1271.35 558.53 1274.75 558.5 C 1275.48 558.5 1275.7995 558.67922 1275.9395 559.44922 C 1276.4595 562.19922 1277.0896 564.91992 1277.5996 567.66992 C 1277.7796 568.62992 1278.1304 568.96922 1279.1504 568.94922 C 1283.4704 568.87922 1287.7894 568.91992 1292.1094 568.91992 L 1294.3301 568.91992 C 1294.3001 568.57992 1294.3098 568.45938 1294.2598 568.35938 C 1289.0198 548.06937 1283.7708 527.78047 1278.5508 507.48047 C 1278.3408 506.67047 1277.9705 506.50977 1277.2305 506.50977 C 1272.6305 506.53977 1268.0297 506.55 1263.4297 506.5 z M 1269.8906 528.39062 C 1269.892 528.39812 1269.8932 528.40851 1269.8945 528.41602 C 1269.896 528.4084 1269.8989 528.39823 1269.9004 528.39062 C 1270.8904 533.90062 1272.0602 540.35969 1273.2402 546.92969 L 1266.2402 546.92969 L 1266.2305 546.92969 C 1267.5205 540.38969 1268.8006 533.91062 1269.8906 528.39062 z " />
	<path
   id="path1061"
   d="M 886.9707 506.50977 C 881.9307 506.53977 876.89 506.51953 871.75 506.51953 C 866.02 527.34953 860.32055 548.03992 854.56055 568.91992 L 855.99023 568.91992 L 867.39062 568.91992 C 870.58063 568.91992 870.56 568.9093 871.25 565.7793 C 871.78 563.3693 872.34086 560.96938 872.88086 558.60938 L 885.08008 558.60938 C 885.74008 561.73937 886.42023 564.77984 886.99023 567.83984 C 887.15023 568.69984 887.45078 568.94945 888.30078 568.93945 C 893.06078 568.89945 897.82008 568.92992 902.58008 568.91992 C 902.92008 568.91992 903.26016 568.86031 903.66016 568.82031 C 903.60016 568.48031 903.5893 568.23953 903.5293 568.01953 C 900.5293 556.42953 897.5293 544.84023 894.5293 533.24023 C 892.3293 524.70023 890.12992 516.15914 887.91992 507.61914 C 887.78992 507.10914 887.8307 506.49977 886.9707 506.50977 z M 879.23047 528.26953 C 880.19047 533.62953 881.37031 540.25945 882.57031 546.93945 L 875.58984 546.93945 C 876.88984 540.25945 878.19047 533.62953 879.23047 528.26953 z " />
	<path
   d="M1240.34,506.63c0,4.34,0,8.61,0,13.02c-6.04,0-12.05,0-18.17,0c0,3.51,0,6.89,0,10.43c4.69,0,9.42,0,14.22,0   c0,4.34,0,8.51,0,12.79c-4.76,0-9.46,0-14.25,0c0,4.24,0,8.38,0,12.65c6.58,0,13.15,0,19.81,0c0,4.51,0,8.89,0,13.33   c-11.81,0-23.59,0-35.47,0c0-20.72,0-41.42,0-62.22C1217.71,506.63,1228.96,506.63,1240.34,506.63z"
   id="path1063" />
	<path
   d="M1134.65,506.59c0,4.43,0,8.7,0,13.12c-6.07,0-12.08,0-18.18,0c0,3.52,0,6.9,0,10.39c4.77,0,9.47,0,14.25,0   c0,4.31,0,8.49,0,12.78c-4.76,0-9.47,0-14.25,0c0,4.24,0,8.38,0,12.64c6.58,0,13.13,0,19.75,0c0,4.5,0,8.87,0,13.32   c-11.83,0-23.61,0-35.47,0c0-20.75,0-41.47,0-62.25C1112.05,506.59,1123.31,506.59,1134.65,506.59z"
   id="path1065" />
	<path
   d="M950.09,509.91c-2.08,4.25-4.02,8.22-5.9,12.06c-1.79-0.91-3.5-1.95-5.33-2.67c-2.6-1.01-5.33-0.92-8.04-0.38   c-1.98,0.4-3.34,1.67-3.86,3.55c-0.56,2.03-1.02,4.13-1.15,6.22c-0.36,6.19-0.5,12.38,0.35,18.55c0.16,1.18,0.41,2.36,0.73,3.51   c1.36,4.78,3.96,6.46,8.91,5.97c3.34-0.33,6.13-1.67,8.5-4.27c2.22,3.81,4.4,7.54,6.67,11.43c-0.8,0.65-1.56,1.33-2.38,1.94   c-4.84,3.61-10.42,4.42-16.26,4.22c-3.21-0.11-6.37-0.54-9.41-1.59c-6.21-2.14-10.02-6.6-12.17-12.65   c-1.6-4.49-2.21-9.15-2.42-13.88c-0.31-6.89-0.11-13.75,1.77-20.45c1.11-3.97,2.84-7.64,5.85-10.57c3.14-3.06,7.03-4.5,11.28-5.08   c6.09-0.84,12.13-0.77,17.93,1.58C946.83,508.06,948.36,509.02,950.09,509.91z"
   id="path1067" />
	<path
   d="M1037.66,568.86c-9.4,0-18.62,0-27.9,0c0-2.89,0-5.71,0-8.6c1.97-0.51,3.93-1.02,5.94-1.54c0-0.42,0-0.77,0-1.13   c0-13.24-0.01-26.47,0.02-39.71c0-0.93-0.25-1.34-1.17-1.52c-1.6-0.33-3.16-0.78-4.79-1.2c0-2.87,0-5.69,0-8.57   c9.28,0,18.5,0,27.9,0c0,2.15,0,4.25,0,6.35c0,2.22,0,2.22-2.15,2.78c-0.93,0.24-1.85,0.54-2.79,0.68c-0.82,0.13-1,0.52-1,1.29   c0.03,6.56,0.01,13.12,0.01,19.67c0,6.76,0.01,13.52-0.02,20.27c0,0.81,0.17,1.22,1.04,1.38c1.37,0.26,2.72,0.63,4.06,1.04   c0.33,0.1,0.79,0.51,0.8,0.78C1037.68,563.46,1037.66,566.09,1037.66,568.86z"
   id="path1069" />
	<path
   d="M1405.67,506.59c9.32,0,18.54,0,27.91,0c0,2.74,0.02,5.44-0.03,8.15c0,0.2-0.43,0.5-0.71,0.58   c-1.42,0.41-2.84,0.8-4.29,1.11c-0.71,0.15-0.89,0.48-0.89,1.14c0.01,13.43,0.01,26.87,0,40.3c0,0.72,0.3,0.96,0.95,1.1   c1.63,0.38,3.24,0.82,4.92,1.25c0,2.86,0,5.68,0,8.6c-9.23,0-18.45,0-27.76,0c0-2.85,0-5.7,0-8.59c1.67-0.43,3.32-0.87,4.99-1.27   c0.62-0.15,0.93-0.36,0.93-1.09c-0.02-13.43-0.02-26.87,0-40.3c0-0.68-0.21-0.99-0.89-1.14c-1.48-0.32-2.95-0.71-4.4-1.14   c-0.29-0.08-0.68-0.47-0.68-0.73C1405.65,511.93,1405.67,509.3,1405.67,506.59z"
   id="path1071" />
	<path
   d="M1164.25,506.59c5.14,0,10.17,0,15.3,0c0,16.33,0,32.59,0,48.97c6.09,0,12.07,0,18.12,0c0,4.47,0,8.81,0,13.26   c-11.11,0-22.21,0-33.42,0C1164.25,548.13,1164.25,527.4,1164.25,506.59z"
   id="path1073" />
	<path
   d="M1131.86,444.56c1.51,0,2.86,0,4.36,0c2.65,12.94,5.3,25.86,7.83,38.25c2.8-12.39,5.72-25.3,8.65-38.23   c1.68,0,3.18,0,4.87,0c2.83,13.03,5.65,26.05,8.29,38.19c2.48-12.1,5.14-25.1,7.82-38.16c1.37,0,2.66,0,4.11,0   c-3.16,14.55-6.29,29.02-9.44,43.52c-1.73,0-3.4,0-5.29,0c-2.77-12.62-5.54-25.27-8.23-37.52c-0.19,1.16-0.39,2.85-0.75,4.49   c-2.14,9.59-4.32,19.16-6.48,28.74c-0.27,1.21-0.52,2.42-0.87,3.61c-0.09,0.3-0.54,0.67-0.84,0.69c-1.23,0.08-2.48,0-3.72,0.05   c-0.68,0.03-0.85-0.27-0.98-0.88c-2.37-10.93-4.76-21.85-7.15-32.77C1133.32,451.25,1132.6,447.98,1131.86,444.56z"
   id="path1075" />
	<path
   d="M976.52,488.07c-0.14,0.04-0.18,0.07-0.22,0.07c-1.36,0-2.99,0.46-4-0.13c-0.99-0.58-1.39-2.21-1.99-3.41   c-4.44-8.99-8.89-17.97-13.26-26.98c-1.11-2.28-1.96-4.69-2.96-7.13c0,12.55,0,25.01,0,37.58c-1.13,0-2.33,0-3.6,0   c0-14.47,0-28.93,0-43.53c1.38,0,2.73-0.05,4.07,0.04c0.3,0.02,0.68,0.49,0.85,0.84c3.41,6.95,6.83,13.91,10.19,20.89   c2.61,5.43,5.15,10.89,7.38,15.6c0-11.84,0-24.51,0-37.28c1.06,0,2.28,0,3.55,0C976.52,459.1,976.52,473.56,976.52,488.07z"
   id="path1077" />
	<path
   id="path1079"
   d="M 1110 443.97852 C 1108.9738 443.98451 1107.9016 444.07727 1106.7891 444.25977 C 1101.0491 445.19977 1097.7806 449.0293 1096.1406 454.2793 C 1093.6806 462.1693 1093.6796 470.19063 1095.8496 478.14062 C 1097.7296 485.06062 1101.7309 488.32953 1108.8809 488.76953 C 1115.9809 489.19953 1120.9292 486.43945 1123.4492 479.43945 C 1124.9592 475.23945 1125.2609 470.87023 1125.3809 465.49023 C 1125.2809 464.19023 1125.1391 461.92016 1124.8691 459.66016 C 1124.7391 458.43016 1124.4602 457.21953 1124.1602 456.01953 C 1122.1914 448.17078 1117.1836 443.93654 1110 443.97852 z M 1109.8203 447.19141 C 1113.5685 447.22725 1117.2406 449.32305 1118.8594 453.0293 C 1120.2759 456.27236 1120.7356 459.67145 1120.9238 463.03516 C 1120.9249 463.05468 1120.9266 463.07423 1120.9277 463.09375 C 1120.9278 463.0944 1120.9277 463.09506 1120.9277 463.0957 C 1120.9905 464.22348 1121.0233 465.34908 1121.0508 466.46094 C 1121.042 467.00094 1121.0308 467.53656 1121.0156 468.07031 C 1121.0156 468.07161 1121.0157 468.07293 1121.0156 468.07422 C 1120.9377 470.86209 1120.7374 473.55573 1120.1309 476.17188 C 1120.067 476.4475 1119.9991 476.72236 1119.9258 476.99609 C 1119.8698 477.20476 1119.8119 477.41344 1119.75 477.62109 C 1119.6476 477.96536 1119.5375 478.30915 1119.418 478.65039 C 1119.397 478.71008 1119.3809 478.77048 1119.3594 478.83008 C 1116.9594 485.50008 1108.5495 487.85055 1103.2695 483.31055 C 1102.681 482.80455 1102.1938 482.24109 1101.7734 481.64258 C 1101.6538 481.47244 1101.5397 481.29958 1101.4316 481.12305 C 1100.5401 479.66367 1100.029 478.00308 1099.6797 476.28906 C 1099.3265 474.55083 1099.0608 472.81276 1098.8867 471.07422 C 1098.8435 470.64362 1098.8052 470.21375 1098.7734 469.7832 C 1098.7732 469.77996 1098.7737 469.77668 1098.7734 469.77344 C 1098.7418 469.3429 1098.7153 468.91092 1098.6953 468.48047 C 1098.6952 468.47722 1098.6955 468.47396 1098.6953 468.4707 C 1098.6754 468.04026 1098.6624 467.61002 1098.6543 467.17969 C 1098.6542 467.17643 1098.6544 467.17318 1098.6543 467.16992 C 1098.6463 466.74025 1098.6445 466.31039 1098.6484 465.88086 C 1098.6484 465.88021 1098.6484 465.87956 1098.6484 465.87891 C 1098.6524 465.44547 1098.6614 465.01334 1098.6777 464.58008 C 1098.6779 464.57683 1098.6776 464.57356 1098.6777 464.57031 C 1098.694 464.14094 1098.7175 463.71043 1098.7461 463.28125 C 1098.7464 463.27737 1098.7458 463.27341 1098.7461 463.26953 C 1098.7748 462.84035 1098.8104 462.41138 1098.8516 461.98242 C 1099.0598 459.81435 1099.4291 457.65035 1099.9707 455.49023 C 1100.5407 453.19023 1101.5299 451.02922 1103.4199 449.44922 C 1105.2949 447.88922 1107.5714 447.1699 1109.8203 447.19141 z " />
	<path
   id="path1081"
   d="M 840.93945 443.79492 C 835.33604 443.85137 829.81484 447.19258 827.58984 453.08008 C 824.43984 461.42008 824.59922 470.00953 826.94922 478.51953 C 828.70922 484.85953 832.95992 488.4193 839.66992 488.7793 C 847.14992 489.1793 851.99992 486.21953 854.41992 479.51953 C 855.84992 475.56953 856.22055 471.44 856.56055 467.25 C 856.24055 464.08 856.0793 460.88023 855.5293 457.74023 C 854.8593 453.83023 853.43992 450.16039 850.41992 447.40039 C 847.69367 444.91039 844.3015 443.76105 840.93945 443.79492 z M 840.35547 447.27734 C 840.69168 447.27133 841.03127 447.27846 841.37305 447.30078 C 841.37436 447.30087 841.37564 447.3007 841.37695 447.30078 C 841.71747 447.32312 842.06193 447.36091 842.40625 447.41016 C 842.4069 447.41025 842.40756 447.41006 842.4082 447.41016 C 842.75319 447.45955 843.09821 447.52247 843.44531 447.59766 C 843.7932 447.67307 844.1421 447.75919 844.49023 447.85938 C 844.82023 447.95438 845.13426 448.06838 845.43359 448.19922 C 846.06286 448.47427 846.62284 448.82918 847.12891 449.24414 C 847.32192 449.40262 847.50682 449.56985 847.68359 449.74609 C 847.72857 449.79089 847.77245 449.83691 847.81641 449.88281 C 847.98716 450.06121 848.15061 450.24742 848.30664 450.44141 C 848.34636 450.4908 848.38698 450.53949 848.42578 450.58984 C 848.58026 450.79026 848.72668 450.99828 848.86719 451.21289 C 849.0589 451.50609 849.24046 451.80998 849.4082 452.12695 C 849.40847 452.12746 849.40794 452.1284 849.4082 452.12891 C 849.56098 452.4177 849.70508 452.71382 849.83984 453.01953 C 850.01984 453.42828 850.18377 453.84061 850.33398 454.25586 C 851.38549 457.16264 851.74391 460.22078 851.91016 463.30078 C 852.12891 467.40453 852.05584 471.48545 851.23047 475.50977 C 851.11256 476.08467 850.98008 476.65797 850.83008 477.23047 C 850.75508 477.51547 850.67273 477.80164 850.58398 478.08789 C 850.49491 478.37411 850.4012 478.65828 850.30078 478.93945 C 850.18266 479.27008 850.05625 479.58743 849.92188 479.89062 C 849.92164 479.89116 849.92211 479.89204 849.92188 479.89258 C 847.90621 484.44875 844.0875 485.94492 839.25 485.41992 C 835.6975 485.04367 833.34609 483.1434 831.92969 480.16211 C 831.92943 480.16158 831.92994 480.16069 831.92969 480.16016 C 831.82877 479.94821 831.73216 479.7305 831.64062 479.50781 C 831.6404 479.50726 831.64085 479.50642 831.64062 479.50586 C 831.54889 479.28258 831.46336 479.05406 831.38086 478.82031 C 829.96086 474.80031 829.69945 470.62016 829.68945 466.41016 C 829.67945 462.48016 829.97086 458.59078 831.13086 454.80078 C 831.40086 453.91828 831.72391 453.12316 832.0957 452.41016 C 832.65328 451.34014 833.31897 450.45603 834.06641 449.74023 C 834.31508 449.50208 834.57164 449.28145 834.83789 449.08008 C 834.97165 448.97891 835.10822 448.88313 835.24609 448.79102 C 835.93376 448.33157 836.67158 447.98404 837.44531 447.73828 C 837.75334 447.64044 838.06609 447.55828 838.38477 447.49219 C 838.38602 447.49193 838.38742 447.49245 838.38867 447.49219 C 838.70737 447.42622 839.02979 447.37332 839.35742 447.33789 C 839.68635 447.30232 840.01926 447.28336 840.35547 447.27734 z " />
	<path
   id="path1083"
   d="M 910.64062 443.98047 C 909.29623 443.94695 907.8907 444.06758 906.43945 444.33008 C 901.25945 445.27008 898.10094 448.75906 896.46094 453.53906 C 893.68094 461.66906 893.68969 469.96922 895.92969 478.19922 C 897.80969 485.10922 901.78086 488.28953 908.88086 488.76953 C 915.85086 489.23953 920.84938 486.48984 923.35938 479.83984 C 924.97937 475.53984 925.27992 471.05016 925.41992 466.41016 C 925.31992 462.25016 925.03031 458.00016 923.57031 453.91016 C 921.15719 447.15016 916.46635 444.1257 910.64062 443.98047 z M 909.5957 447.28516 C 909.86894 447.27897 910.14656 447.27969 910.42969 447.28906 C 914.65969 447.43906 917.47055 449.51086 919.06055 453.38086 C 919.9493 455.54642 920.4252 457.78536 920.69727 460.06055 C 920.75122 460.51173 920.79848 460.96432 920.83789 461.41797 C 920.83817 461.4212 920.83761 461.42451 920.83789 461.42773 C 920.87721 461.88139 920.91145 462.33551 920.93945 462.79102 C 920.93965 462.79426 920.93925 462.79754 920.93945 462.80078 C 920.96739 463.2563 920.98991 463.71317 921.00977 464.16992 C 921.00991 464.17317 921.00962 464.17644 921.00977 464.17969 C 921.05884 464.98635 921.01953 465.7833 921.01953 466.58008 C 920.99953 470.42008 920.79094 474.2407 919.71094 477.9707 C 919.5736 478.44484 919.41874 478.89055 919.25195 479.3125 C 919.25099 479.31493 919.25096 479.31788 919.25 479.32031 C 919.16719 479.52992 919.07986 479.73255 918.99023 479.92969 C 918.90386 480.11936 918.81503 480.30402 918.72266 480.48242 C 918.71805 480.49132 918.7136 480.5009 918.70898 480.50977 C 918.70767 480.5123 918.7064 480.51505 918.70508 480.51758 C 918.60899 480.7018 918.50849 480.88035 918.40625 481.05273 C 918.38869 481.08233 918.3693 481.10942 918.35156 481.13867 C 918.26464 481.28208 918.17697 481.42335 918.08594 481.55859 C 917.97596 481.722 917.8637 481.87945 917.74805 482.03125 C 917.74665 482.03309 917.74554 482.03527 917.74414 482.03711 C 917.63015 482.18647 917.51373 482.33038 917.39453 482.46875 C 917.39335 482.47012 917.39181 482.47128 917.39062 482.47266 C 917.27109 482.61125 917.14983 482.74325 917.02539 482.87109 C 917.02349 482.87304 917.02143 482.87501 917.01953 482.87695 C 916.09886 483.82223 915.04852 484.47127 913.93359 484.89648 C 913.7299 484.97388 913.52404 485.04505 913.31641 485.10742 C 913.19602 485.14375 913.07463 485.17557 912.95312 485.20703 C 912.79176 485.2486 912.62981 485.28507 912.4668 485.31836 C 910.48241 485.72616 908.39037 485.54056 906.50977 485.03906 C 905.06814 484.65826 903.89563 483.94697 902.93945 482.99023 C 902.87254 482.92328 902.80692 482.85457 902.74219 482.78516 C 902.58988 482.62181 902.44313 482.4519 902.30273 482.27539 C 902.25113 482.21057 902.20044 482.14466 902.15039 482.07812 C 902.01266 481.89476 901.87988 481.70575 901.75391 481.50977 C 901.7009 481.42754 901.64867 481.34413 901.59766 481.25977 C 901.37504 480.89018 901.16542 480.50783 900.98047 480.09961 C 900.94831 480.02859 900.92381 479.95598 900.89258 479.88477 C 900.76902 479.60341 900.65265 479.3213 900.54297 479.03711 C 900.47297 478.85549 900.4064 478.67295 900.3418 478.49023 C 900.242 478.2084 900.14619 477.92492 900.05859 477.64062 C 899.62335 476.22579 899.32943 474.78272 899.13867 473.32031 C 899.07851 472.86012 899.02849 472.39902 898.98633 471.93555 C 898.98604 471.93232 898.98662 471.92901 898.98633 471.92578 C 898.94428 471.46229 898.90987 470.99732 898.88281 470.53125 C 898.88263 470.52801 898.883 470.52472 898.88281 470.52148 C 898.85585 470.05539 898.83528 469.58713 898.82031 469.11914 C 898.82021 469.11588 898.82041 469.11263 898.82031 469.10938 C 898.80289 468.53698 898.78738 467.96474 898.77734 467.39258 C 898.7773 467.38997 898.77739 467.38737 898.77734 467.38477 C 898.76734 466.81195 898.76201 466.24008 898.76367 465.66797 C 898.76367 465.66732 898.76367 465.66667 898.76367 465.66602 C 898.76536 465.0926 898.77528 464.51951 898.79297 463.94727 C 898.79303 463.94532 898.79291 463.94336 898.79297 463.94141 C 898.81068 463.37047 898.83708 462.79978 898.875 462.23047 C 898.87513 462.22853 898.87487 462.22655 898.875 462.22461 C 898.91295 461.65595 898.96302 461.08806 899.02539 460.52148 C 899.02567 460.51892 899.02511 460.51623 899.02539 460.51367 C 899.08788 459.9471 899.16469 459.38238 899.25586 458.81836 C 899.43943 457.68266 899.68403 456.55221 900.00977 455.42969 C 900.09571 455.12889 900.19227 454.83171 900.29102 454.53516 C 900.31838 454.45206 900.34258 454.3678 900.37109 454.28516 C 900.37476 454.27461 900.37913 454.26444 900.38281 454.25391 C 900.51101 453.88722 900.65011 453.52473 900.80078 453.16992 C 902.51641 449.23242 905.49714 447.37799 909.5957 447.28516 z " />
	<path
   d="M1023.87,444.58c1.39,0,2.65,0,4.08,0c0,0.49,0,0.95,0,1.42c0,9.92-0.02,19.83,0.02,29.75c0.01,1.39,0.17,2.8,0.45,4.16   c0.71,3.37,2.48,4.97,5.9,5.3c4.45,0.43,8.22-1.23,11.49-4.13c0.3-0.27,0.36-0.93,0.36-1.42c0.02-11.2,0.01-22.39,0.01-33.59   c0-0.47,0-0.94,0-1.48c1.4,0,2.7,0,4.06,0c0,14.52,0,28.98,0,43.5c-0.94,0-1.84,0-2.83,0c-0.31-1.29-0.62-2.59-0.93-3.9   c-1.45,0.99-2.77,2.01-4.2,2.84c-3.8,2.19-7.84,2.39-11.9,0.91c-3.93-1.43-5.58-4.69-6.23-8.56c-0.21-1.25-0.26-2.55-0.26-3.82   c-0.02-9.84-0.01-19.67-0.01-29.51C1023.87,445.58,1023.87,445.11,1023.87,444.58z"
   id="path1085" />
	<path
   id="path1087"
   d="M 999.19531 444.48828 C 998.46975 444.50893 998.12289 444.8582 997.86914 445.68945 C 994.47914 456.66945 991.02961 467.62961 987.59961 478.59961 C 986.62961 481.71961 985.64914 484.82938 984.61914 488.10938 L 988.75977 488.10938 C 990.07977 483.78938 991.40945 479.52023 992.68945 475.24023 C 992.91945 474.47023 993.23984 474.16969 994.08984 474.17969 C 998.19984 474.22969 1002.3195 474.22969 1006.4395 474.17969 C 1007.2695 474.16969 1007.6001 474.4207 1007.8301 475.2207 C 1008.9701 479.2507 1010.1706 483.25953 1011.3906 487.26953 C 1011.4906 487.60953 1011.8609 488.09914 1012.1309 488.11914 C 1013.3709 488.20914 1014.6298 488.16016 1016.0098 488.16016 C 1011.5298 473.49016 1007.0999 459.00953 1002.6699 444.51953 C 1001.5199 444.51953 1000.5193 444.59 999.5293 444.5 C 999.4093 444.49 999.29896 444.48533 999.19531 444.48828 z M 1000.4297 449.53906 C 1002.2797 456.13906 1004.2996 463.33062 1006.3496 470.64062 L 994.25977 470.64062 C 996.38977 463.37063 998.48969 456.15906 1000.4297 449.53906 z " />
	<path
   d="M1190.3,448.06c0,5.19,0,10.24,0,15.41c4.73,0,9.4,0,14.15,0c0,1.2,0,2.29,0,3.53c-4.71,0-9.41,0-14.16,0   c0,5.93,0,11.71,0,17.65c6.09,0,12.14,0,18.26,0c0,1.22,0,2.28,0,3.43c-7.39,0-14.77,0-22.24,0c0-14.47,0-28.95,0-43.49   c7.16,0,14.26,0,21.43,0c0,1.15,0,2.25,0,3.48C1201.9,448.06,1196.12,448.06,1190.3,448.06z"
   id="path1089" />
	<path
   d="M866.79,488.09c0-5.8,0-11.58,0-17.55c-1.63,0.54-3.09,1.03-4.72,1.58c0-1.09-0.05-2.07,0.03-3.04   c0.03-0.28,0.41-0.63,0.71-0.75c0.88-0.37,1.79-0.71,2.71-0.94c0.97-0.24,1.29-0.72,1.28-1.74c-0.05-6.52-0.03-13.03-0.03-19.55   c0-0.47,0-0.94,0-1.49c1.38,0,2.64,0,4.06,0c0,6.89,0,13.79,0,20.85c3.38-1.18,6.57-2.3,9.93-3.48c0,1.11,0.06,2.09-0.04,3.06   c-0.03,0.3-0.45,0.7-0.78,0.82c-2.69,0.99-5.42,1.91-8.11,2.92c-0.39,0.15-0.94,0.63-0.94,0.96c-0.06,4.91-0.04,9.83-0.04,14.93   c5.4,0,10.73,0,16.09,0c0,1.25,0,2.31,0,3.44C880.24,488.09,873.59,488.09,866.79,488.09z"
   id="path1091" />
	<path
   d="M1087.47,444.52c-5.12,6.81-10.05,13.38-15.01,19.98c5.11,7.84,10.18,15.63,15.4,23.65c-1.6,0-3.01,0.03-4.41-0.03   c-0.23-0.01-0.48-0.37-0.65-0.61c-4.84-7.38-9.68-14.76-14.47-22.16c-0.2-0.31-0.16-1.02,0.06-1.32   c4.68-6.33,9.39-12.63,14.12-18.92c0.21-0.28,0.62-0.54,0.95-0.56C1084.69,444.48,1085.93,444.52,1087.47,444.52z"
   id="path1093" />
	<path
   d="M818.46,444.52c-1.31,1.76-2.45,3.28-3.59,4.8c-3.55,4.73-7.09,9.47-10.68,14.16c-0.58,0.76-0.62,1.25-0.09,2.06   c4.72,7.17,9.4,14.37,14.09,21.56c0.19,0.29,0.35,0.6,0.6,1.04c-1.51,0-2.86,0.03-4.2-0.03c-0.27-0.01-0.61-0.33-0.78-0.59   c-4.85-7.37-9.69-14.76-14.48-22.16c-0.2-0.31-0.18-1.02,0.04-1.32c4.68-6.33,9.39-12.63,14.13-18.92c0.22-0.3,0.68-0.56,1.05-0.58   C815.73,444.48,816.93,444.52,818.46,444.52z"
   id="path1095" />
	<path
   d="M797.67,488.13c-1.35,0-2.58,0-3.91,0c0-14.52,0-29,0-43.54c1.31,0,2.57,0,3.91,0   C797.67,459.1,797.67,473.56,797.67,488.13z"
   id="path1097" />
	<path
   d="M1066.63,488.11c-1.34,0-2.56,0-3.86,0c0-14.51,0-28.96,0-43.5c1.28,0,2.53,0,3.86,0   C1066.63,459.1,1066.63,473.55,1066.63,488.11z"
   id="path1099" />
	
	
	
	<path
   class="st1"
   d="M1246.39,587.87c2.22,0,4.24,0,6.48,0c1.1,6.73,2.2,13.44,3.15,19.27c0.64-5.82,1.38-12.54,2.12-19.28   c2.88,0,5.43,0,8.21,0c-1.98,10.49-3.96,20.93-5.96,31.53c-2.47,0-4.93,0.02-7.39-0.04c-0.21-0.01-0.53-0.54-0.59-0.86   c-0.93-5.63-1.83-11.26-2.73-16.89c-0.04-0.26-0.13-0.52-0.16-0.63c-1.03,6.04-2.08,12.2-3.13,18.38c-2.79,0-5.38,0-8.09,0   c-1.95-10.47-3.9-20.92-5.87-31.47c2.72,0,5.33,0,8.29,0c0.86,6.57,1.74,13.2,2.49,18.93   C1244.17,601.15,1245.27,594.57,1246.39,587.87z"
   id="path1107" />
	<path
   class="st1"
   d="M991.33,619.34c-2.54,0-4.8,0-7.16,0c0-10.45,0-20.9,0-31.52c2.28,0,4.58-0.03,6.88,0.04   c0.25,0.01,0.57,0.48,0.71,0.8c2.5,5.74,4.97,11.49,7.45,17.24c0.05,0.11,0.14,0.19,0.1,0.13c-0.13-5.93-0.27-12.02-0.41-18.16   c2.5,0,4.73,0,7.07,0c0,10.44,0,20.89,0,31.55c-1.66,0-3.38-0.16-5.05,0.04c-2.09,0.25-3.04-0.53-3.78-2.5   c-1.96-5.23-4.18-10.35-6.3-15.52c-0.05-0.13-0.1-0.27-0.06-0.16C990.96,607.13,991.14,613.19,991.33,619.34z"
   id="path1109" />
	<path
   class="st1"
   d="M1203.61,603.04c0.36-2.27,0.57-5.12,1.31-7.82c1.38-5.02,5.13-7.76,10.33-7.88c1.71-0.04,3.45,0,5.13,0.29   c4.03,0.69,6.71,3.14,7.88,7.01c1.8,5.95,1.82,11.98,0.03,17.93c-1.39,4.61-4.71,7.03-9.46,7.29c-2.13,0.12-4.34,0.09-6.41-0.35   c-4.89-1.04-7.14-4.65-8.01-9.24C1204,608.08,1203.91,605.84,1203.61,603.04z M1212.2,603.47c0.24,2.41,0.35,4.8,0.76,7.15   c0.38,2.2,1.57,3.05,3.64,3.06c2.09,0.02,3.37-0.9,3.78-3.08c0.87-4.63,0.88-9.29,0.03-13.93c-0.4-2.18-1.68-3.11-3.76-3.11   c-2.05,0-3.28,0.86-3.69,3.03C1212.54,598.84,1212.44,601.16,1212.2,603.47z"
   id="path1111" />
	<path
   class="st1"
   d="M817.22,603.1c0.36-2.29,0.58-5.13,1.3-7.84c1.32-4.92,4.96-7.68,10.06-7.9c1.86-0.08,3.77-0.02,5.6,0.31   c4.53,0.83,7.04,3.88,8.07,8.17c1.29,5.36,1.31,10.78-0.13,16.11c-1.33,4.93-4.66,7.64-9.75,7.91c-2.13,0.11-4.33,0.06-6.4-0.39   c-4.85-1.04-7.06-4.64-7.94-9.17C817.6,608.13,817.52,605.88,817.22,603.1z M834.74,603.54c-0.23-2.28-0.33-4.6-0.73-6.87   c-0.38-2.2-1.65-3.11-3.75-3.12c-2.09-0.01-3.42,0.89-3.7,3.14c-0.38,3.15-0.49,6.35-0.5,9.53c0,1.73,0.37,3.48,0.74,5.18   c0.25,1.17,1.1,1.88,2.33,2.14c2.58,0.55,4.41-0.47,4.87-3.06C834.41,608.22,834.51,605.89,834.74,603.54z"
   id="path1113" />
	<path
   class="st1"
   d="M1091.67,606.98c0,4.12,0,8.19,0,12.34c-2.61,0-5.1,0-7.71,0c0-10.43,0-20.88,0-31.34   c0.05-0.03,0.11-0.12,0.17-0.12c4.91,0.13,9.85-0.09,14.7,0.5c5.59,0.68,7.09,4.3,6.94,9.29c-0.02,0.64-0.07,1.28-0.17,1.91   c-0.4,2.48-1.67,4.28-4.09,5.16c-0.26,0.09-0.5,0.22-0.91,0.41c2.35,1.13,3.13,3.22,3.74,5.37c0.84,2.9,1.55,5.85,2.33,8.86   c-2.84,0-5.54,0-8.36,0c-0.64-2.71-1.28-5.42-1.93-8.12c-0.13-0.54-0.27-1.08-0.42-1.62   C1095.27,607.16,1094.43,606.62,1091.67,606.98z M1091.68,594.43c0,1.31,0,2.5,0,3.69c0,3.44,0.05,3.47,3.52,2.95   c1.25-0.18,1.97-0.86,2.12-2.06c0.11-0.86,0.11-1.74,0.03-2.6c-0.11-1.2-0.88-1.88-2.04-1.97   C1094.17,594.37,1093.02,594.43,1091.68,594.43z"
   id="path1115" />
	<path
   class="st1"
   d="M964.71,606.21c0,4.41,0,8.74,0,13.14c-2.65,0-5.15,0-7.73,0c0-10.5,0-20.94,0-31.46c2.55,0,5.05,0,7.66,0   c0.02,0.43,0.07,0.85,0.07,1.28c0.01,3.08,0.03,6.16-0.01,9.23c-0.01,0.82,0.24,1.15,1.08,1.12c1.28-0.05,2.56-0.05,3.84,0   c0.85,0.04,1.1-0.29,1.09-1.11c-0.04-3.08-0.02-6.16-0.01-9.23c0-0.43,0.04-0.86,0.07-1.32c2.58,0,5.05,0,7.64,0   c0,10.47,0,20.91,0,31.46c-2.5,0-5.02,0-7.71,0c0-4.36,0-8.7,0-13.1C968.65,606.21,966.76,606.21,964.71,606.21z"
   id="path1117" />
	<path
   class="st1"
   d="M1029.49,587.87c2.58,0,5.09,0,7.74,0c0,4.33,0,8.66,0,12.99c0.1,0.02,0.19,0.05,0.29,0.07   c0.19-0.36,0.39-0.72,0.56-1.09c1.68-3.71,3.38-7.41,5.03-11.13c0.3-0.69,0.68-0.93,1.43-0.92c2.36,0.05,4.72,0.02,7.23,0.02   c-0.16,0.4-0.26,0.72-0.41,1.02c-2.15,4.19-4.29,8.39-6.48,12.56c-0.36,0.69-0.35,1.19-0.01,1.87c2.4,4.78,4.77,9.58,7.14,14.38   c0.26,0.53,0.49,1.07,0.81,1.77c-2.91,0-5.65,0.03-8.39-0.04c-0.3-0.01-0.69-0.56-0.86-0.94c-1.85-4.37-3.67-8.76-5.5-13.14   c-0.16-0.39-0.35-0.77-0.77-1.12c0,5.03,0,10.07,0,15.18c-2.68,0-5.22,0-7.82,0C1029.49,608.86,1029.49,598.43,1029.49,587.87z"
   id="path1119" />
	<path
   class="st1"
   d="M1303.33,600.95c1.99-4.37,3.98-8.74,5.96-13.11c2.73,0,5.41,0,8.22,0c-0.13,0.33-0.22,0.61-0.35,0.86   c-2.11,4.12-4.19,8.26-6.36,12.35c-0.49,0.92-0.47,1.61,0,2.53c2.49,4.91,4.9,9.87,7.33,14.81c0.14,0.28,0.26,0.56,0.47,1.01   c-2.9,0-5.64,0.03-8.38-0.04c-0.31-0.01-0.72-0.54-0.88-0.91c-1.87-4.41-3.7-8.84-5.54-13.26c-0.15-0.36-0.31-0.72-0.71-1.04   c0,5.02,0,10.03,0,15.15c-2.7,0-5.22,0-7.83,0c0-10.48,0-20.93,0-31.43c2.58,0,5.08,0,7.75,0c0,4.37,0,8.69,0,13.01   C1303.11,600.9,1303.22,600.92,1303.33,600.95z"
   id="path1121" />
	<path
   class="st1"
   d="M800.56,608.26c0,1.89,0,3.72,0,5.56c0,1.83,0,3.66,0,5.52c-2.67,0-5.17,0-7.74,0c0-10.52,0-20.96,0-31.77   c5.03,0.26,9.99,0.24,14.87,0.87c4.18,0.53,6.1,3.15,6.47,7.96c0.15,1.92-0.04,3.93-0.47,5.82c-0.84,3.66-3.68,5.15-7.1,5.64   C804.67,608.13,802.71,608.13,800.56,608.26z M800.56,594.37c0,2.41-0.01,4.63,0.02,6.85c0,0.22,0.31,0.62,0.5,0.63   c3.79,0.23,5.3-0.31,5.09-4.21c-0.13-2.54-0.97-3.26-3.53-3.27C802.02,594.37,801.39,594.37,800.56,594.37z"
   id="path1123" />
	<path
   class="st1"
   d="M1289.34,589.42c-0.91,1.95-1.76,3.78-2.48,5.33c-2.13-0.35-4.1-0.89-6.08-0.93c-2.26-0.04-3.44,1.84-2.5,3.74   c0.33,0.66,1.15,1.19,1.87,1.5c1.24,0.53,2.59,0.8,3.87,1.25c5.09,1.8,7.25,5.25,6.61,10.63c-0.16,1.33-0.42,2.71-0.93,3.94   c-1.29,3.15-4,4.45-7.16,4.9c-4.32,0.62-8.52,0.14-12.51-1.74c-0.42-0.2-0.82-0.47-1.3-0.75c0.81-2.07,1.6-4.06,2.29-5.81   c2.12,0.65,4.1,1.38,6.14,1.83c1,0.22,2.15,0.04,3.18-0.2c1.3-0.3,2-1.33,2.06-2.62c0.07-1.6-0.3-2.27-1.82-2.85   c-1.49-0.56-3.05-0.95-4.54-1.52c-4.96-1.89-6.27-5.29-6.03-9.78c0.31-5.85,3.85-8.98,9.76-9.07c3.08-0.04,6.06,0.26,8.84,1.7   C1288.83,589.11,1289.03,589.24,1289.34,589.42z"
   id="path1125" />
	<path
   class="st1"
   d="M1154.68,617.29c0.82-2.08,1.61-4.07,2.3-5.81c2.14,0.66,4.12,1.37,6.15,1.85c0.89,0.21,1.91,0.06,2.84-0.11   c1.47-0.27,2.33-1.34,2.42-2.73c0.1-1.51-0.4-2.3-1.97-2.88c-1.42-0.52-2.89-0.92-4.31-1.43c-3.66-1.31-5.77-3.85-6.11-7.78   c-0.58-6.67,2.77-10.95,9.72-11.08c4.41-0.08,6.97,0.52,9.57,2.11c-0.87,1.88-1.75,3.77-2.48,5.33c-2.12-0.36-4.01-0.87-5.92-0.96   c-2.04-0.09-3.06,1.14-2.9,2.95c0.11,1.18,0.79,1.9,1.85,2.26c1.36,0.46,2.74,0.85,4.11,1.29c5.45,1.75,6.96,5.36,6.66,10.49   c-0.04,0.67-0.17,1.35-0.29,2.01c-0.68,3.66-2.91,5.9-6.49,6.7c-4.99,1.11-9.83,0.6-14.42-1.76   C1155.19,617.63,1154.99,617.49,1154.68,617.29z"
   id="path1127" />
	<path
   class="st1"
   d="M1134.22,587.87c5.7,0,11.32,0,17.02,0c0,2.16,0,4.26,0,6.58c-0.53,0-1.07,0-1.61,0c-2.2,0-4.4,0.02-6.6-0.01   c-0.74-0.01-1.11,0.18-1.08,1c0.05,1.39,0.01,2.78,0.01,4.33c2.49,0,4.86,0,7.3,0c0,2.21,0,4.26,0,6.45   c-2.08,0-4.11,0.04-6.13-0.02c-0.88-0.02-1.22,0.24-1.18,1.15c0.06,1.44,0.05,2.88,0,4.32c-0.03,0.83,0.25,1.12,1.1,1.11   c2.96-0.04,5.91-0.02,8.99-0.02c0,2.23,0,4.39,0,6.6c-5.95,0-11.85,0-17.82,0C1134.22,608.82,1134.22,598.37,1134.22,587.87z"
   id="path1129" />
	<path
   class="st1"
   d="M1339.33,619.31c0-10.46,0-20.88,0-31.4c5.65,0,11.3,0,17.05,0c0,2.11,0,4.24,0,6.54c-2.19,0-4.38,0-6.56,0   c-2.71,0-2.71,0-2.71,2.69c0,0.83,0,1.66,0,2.61c2.45,0,4.79,0,7.25,0c0,2.2,0,4.28,0,6.46c-2.1,0-4.13,0.03-6.17-0.02   c-0.84-0.02-1.13,0.26-1.09,1.09c0.06,1.44,0.06,2.88,0,4.32c-0.04,0.89,0.25,1.18,1.15,1.16c2.92-0.05,5.83-0.02,8.87-0.02   c0,2.19,0,4.32,0,6.56C1351.26,619.31,1345.37,619.31,1339.33,619.31z"
   id="path1131" />
	<path
   class="st1"
   d="M928.5,612.71c0,2.31,0,4.41,0,6.61c-5.93,0-11.82,0-17.83,0c0-10.44,0-20.89,0-31.42c5.62,0,11.24,0,16.97,0   c0,2.14,0,4.3,0,6.58c-3.06,0-6.05,0-9.11,0c0,1.8,0,3.49,0,5.29c2.34,0,4.64,0,7.06,0c0,2.15,0,4.2,0,6.4c-2.3,0-4.63,0-7.05,0   c0,2.24,0,4.33,0,6.55C921.84,612.71,925.1,612.71,928.5,612.71z"
   id="path1133" />
	<path
   class="st1"
   d="M1118.7,612.71c3.76,0,7.26,0,10.86,0c0,2.24,0,4.37,0,6.61c-6.58,0-13.19,0-20.01,0   c0.23-2.34-0.56-4.71,0.81-7.03c3.21-5.43,6.26-10.95,9.37-16.44c0.21-0.37,0.41-0.75,0.73-1.34c-3.35,0-6.51,0-9.76,0   c0-2.29,0-4.43,0-6.63c6.31,0,12.56,0,18.94,0c0,1.83,0.03,3.62-0.02,5.4c-0.01,0.4-0.31,0.81-0.52,1.19   c-3.21,5.62-6.42,11.23-9.63,16.85C1119.25,611.69,1119.05,612.07,1118.7,612.71z"
   id="path1135" />
	<path
   class="st1"
   d="M1200.21,587.89c0,1.81,0.03,3.53-0.02,5.24c-0.02,0.44-0.28,0.9-0.51,1.31c-3.22,5.65-6.46,11.3-9.7,16.95   c-0.21,0.37-0.39,0.75-0.7,1.33c3.75,0,7.28,0,10.87,0c0,2.26,0,4.36,0,6.58c-6.62,0-13.26,0-20.02,0c0.09-2.64-0.4-5.19,1.18-7.74   c3.17-5.12,6.01-10.45,8.98-15.69c0.23-0.4,0.43-0.82,0.73-1.4c-3.35,0-6.49,0-9.73,0c0-2.24,0-4.37,0-6.59   C1187.56,587.89,1193.81,587.89,1200.21,587.89z"
   id="path1137" />
	<path
   class="st1"
   d="M949.76,595.7c-1.77-1.43-3.63-1.97-5.72-1.79c-1.92,0.17-3.02,0.85-3.2,2.76c-0.31,3.32-0.32,6.68-0.39,10.03   c-0.02,0.87,0.19,1.74,0.33,2.61c0.66,4.01,3.05,4.79,6.68,3.6c0.88-0.29,1.63-0.96,2.54-1.52c1.04,1.79,2.12,3.64,3.22,5.52   c-2.26,2.22-4.99,3.11-7.98,3.11c-1.7,0-3.45-0.14-5.1-0.51c-4.63-1.04-6.91-4.38-7.79-8.75c-1-4.98-1.04-10.01,0.17-14.98   c1.36-5.62,4.99-8.38,10.79-8.48c2.83-0.05,5.58,0.16,8.16,1.48c0.98,0.5,1.38,0.97,0.72,2.1   C951.27,592.38,950.59,594,949.76,595.7z"
   id="path1139" />
	<path
   class="st1"
   d="M906.39,587.91c0,2.13,0,4.24,0,6.5c-2.09,0-4.18,0-6.46,0c0,8.4,0,16.64,0,24.94c-2.65,0-5.12,0-7.74,0   c0-8.24,0-16.48,0-24.88c-2.25,0-4.34,0-6.51,0c0-2.26,0-4.36,0-6.56C892.55,587.91,899.4,587.91,906.39,587.91z"
   id="path1141" />
	<path
   class="st1"
   d="M1369.6,587.9c0,0.48,0,0.91,0,1.34c0,9.44,0.01,18.87,0,28.31c0,5.31-2.71,8.95-7.74,10.54   c-0.78,0.25-1.22,0.22-1.6-0.61c-0.69-1.48-1.5-2.9-2.3-4.44c0.51-0.44,1.01-0.88,1.52-1.31c1.36-1.15,2.11-2.61,2.12-4.38   c0.07-9.23,0.12-18.47,0.18-27.7c0-0.55,0-1.11,0-1.75C1364.37,587.9,1366.87,587.9,1369.6,587.9z"
   id="path1143" />
	<path
   class="st1"
   d="M1054.86,619.34c0-1.26-0.06-2.45,0.04-3.63c0.03-0.3,0.56-0.68,0.93-0.79c1.97-0.59,1.98-0.56,1.98-2.58   c0-6-0.04-12,0.03-18c0.01-1.16-0.34-1.73-1.46-1.8c-1.25-0.07-1.72-0.66-1.56-1.92c0.11-0.86,0.02-1.75,0.02-2.72   c4.69,0,9.3,0,14.07,0c0,1.25,0.04,2.52-0.04,3.78c-0.01,0.23-0.49,0.54-0.8,0.64c-2.25,0.7-2.25,0.69-2.25,3.1   c0,5.84,0.04,11.68-0.03,17.52c-0.01,1.17,0.34,1.67,1.45,1.8c0.55,0.06,1.07,0.29,1.62,0.45c0,1.39,0,2.73,0,4.15   C1064.24,619.34,1059.65,619.34,1054.86,619.34z"
   id="path1145" />
	<path
   class="st1"
   d="M868.33,587.85c4.78,0,9.33,0,14.05,0c0,1.3,0.06,2.57-0.05,3.83c-0.02,0.28-0.63,0.62-1.02,0.74   c-1.97,0.58-1.98,0.55-1.98,2.55c0,6.08,0.02,12.15-0.02,18.23c-0.01,0.85,0.2,1.28,1.08,1.48c2.01,0.47,2,0.51,2,2.53   c0,0.71,0,1.41,0,2.16c-4.73,0-9.28,0-14.05,0c0-1.27-0.04-2.53,0.04-3.79c0.02-0.24,0.5-0.55,0.83-0.64   c2.12-0.63,2.12-0.61,2.12-2.82c0-5.96-0.03-11.91,0.02-17.87c0.01-1.03-0.26-1.6-1.32-1.66c-1.39-0.07-1.95-0.73-1.74-2.15   C868.43,589.63,868.33,588.78,868.33,587.85z"
   id="path1147" />
	<path
   class="st1"
   d="M855.47,612.75c3.16,0,6.1,0,9.15,0c0,2.22,0,4.35,0,6.57c-5.57,0-11.14,0-16.79,0c0-10.47,0-20.92,0-31.44   c2.53,0,5.02,0,7.64,0C855.47,596.14,855.47,604.36,855.47,612.75z"
   id="path1149" />
	<path
   class="st1"
   d="M1334.58,619.35c-4.72,0-9.3,0-13.95,0c0-1.4,0-2.75,0-4.17c0.74-0.21,1.54-0.35,2.25-0.66   c0.33-0.14,0.74-0.62,0.74-0.95c0.04-6.59,0.02-13.19,0.05-19.78c0-0.72-0.31-0.93-0.95-1.1c-2.17-0.56-2.16-0.59-2.16-2.86   c0-0.63,0-1.26,0-1.95c4.7,0,9.28,0,14.07,0c0,1.27,0.05,2.57-0.04,3.86c-0.02,0.24-0.58,0.55-0.94,0.65   c-2.08,0.6-2.08,0.59-2.08,2.74c0,5.87,0.04,11.75-0.03,17.62c-0.01,1.2,0.25,1.88,1.53,1.99c0.5,0.04,0.99,0.27,1.52,0.43   C1334.58,616.56,1334.58,617.91,1334.58,619.35z"
   id="path1151" />
	<path
   class="st1"
   d="M1010.7,587.87c4.73,0,9.31,0,14.09,0c0,1.3,0.05,2.6-0.05,3.89c-0.02,0.24-0.61,0.52-0.97,0.63   c-2.28,0.68-2.03,0.05-2.04,2.67c-0.01,6.04,0.02,12.07-0.02,18.11c-0.01,0.94,0.29,1.33,1.21,1.53c1.9,0.4,1.89,0.45,1.89,2.35   c0,0.72,0,1.44,0,2.26c-4.67,0-9.29,0-14,0c0-1.34,0-2.71,0-4.1c0.17-0.07,0.35-0.18,0.54-0.23c2.43-0.69,2.43-0.69,2.43-3.17   c0-5.84-0.02-11.67,0.02-17.51c0.01-1.01-0.26-1.49-1.29-1.72c-1.82-0.4-1.81-0.46-1.81-2.29   C1010.69,589.53,1010.7,588.77,1010.7,587.87z"
   id="path1153" />
	
	
	
	
	<path
   d="M378.75,533.76c0.15-1.89,0.32-3.79,0.44-5.68c1.52-23.48,7.38-45.82,17.59-67.02c4.78-9.93,10.43-19.33,16.94-28.22   c0.23-0.32,0.48-0.63,0.71-0.94c2.17,1.67,4.31,3.31,6.54,5.03c-20.23,30.81-30.45,64.84-30.6,101.76   c-0.16,36.94,9.76,71.07,29.8,102.18c-1.26,0.87-2.51,1.66-3.68,2.56c-1.14,0.87-2.19,1.86-3.38,2.88   c-0.23-0.31-0.49-0.63-0.73-0.97c-14.58-20.54-24.49-43.13-29.71-67.77c-2.12-10.03-3.38-20.17-3.72-30.42   c-0.01-0.3-0.13-0.6-0.19-0.89C378.75,542.08,378.75,537.92,378.75,533.76z"
   id="path1163" />
	<path
   d="M556.35,721.92c-0.78-0.08-1.56-0.2-2.34-0.23c-20.43-0.71-40.17-4.76-59.23-12.15c-14.04-5.44-27.18-12.55-39.45-21.27   c-0.29-0.2-0.56-0.43-0.86-0.65c1.35-1.58,2.66-3.12,4.03-4.73c1.14,0.86,2.3,1.76,3.48,2.64c19.86,14.83,41.88,24.89,66.18,29.85   c15.77,3.22,31.68,4.02,47.72,2.52c20.48-1.91,39.91-7.5,58.24-16.79c26.4-13.38,47.81-32.49,64.58-56.82   c2.49-3.61,4.79-7.36,7.15-11c2.71,1.35,5.47,2.73,8.39,4.19c-2.17,3.14-4.33,6.43-6.66,9.6c-17.76,24.21-40.08,43.01-67.01,56.28   c-15.79,7.78-32.4,13.09-49.78,15.97c-8.29,1.37-16.63,2.23-25.04,2.41c-0.26,0.01-0.51,0.13-0.77,0.19   C562.11,721.92,559.23,721.92,556.35,721.92z"
   id="path1165" />
	<path
   d="M564.99,358.08c0.73,0.08,1.47,0.2,2.2,0.22c22.78,0.8,44.64,5.7,65.55,14.74c19.86,8.59,37.61,20.38,53.28,35.31   c9.68,9.22,18.24,19.37,25.69,30.47c0.24,0.36,0.46,0.73,0.65,1.03c-2.52,1.42-4.98,2.81-7.56,4.26c-0.14-0.21-0.37-0.56-0.59-0.92   c-16.44-26.82-38.23-48.07-65.92-63.12c-16.9-9.19-34.9-15.16-53.94-17.96c-8.01-1.18-16.05-1.79-24.13-1.74   c-32.42,0.21-62.21,9.22-89.37,26.91c-3.78,2.46-7.42,5.14-11.21,7.79c-1.03-1.27-2.12-2.62-3.3-4.08c1.94-1.3,3.87-2.63,5.84-3.89   c20.98-13.48,43.75-22.33,68.35-26.43c8.25-1.38,16.55-2.21,24.92-2.4c0.3-0.01,0.6-0.13,0.9-0.19   C559.23,358.08,562.11,358.08,564.99,358.08z"
   id="path1167" />
	<path
   d="M459.18,428.21c0.41-0.61,0.7-1.04,1.09-1.63c80.67,53.79,160.12,109.23,238.43,166.45c-0.34,0.56-0.62,1.02-1.01,1.64   C616.96,540.89,537.53,485.42,459.18,428.21z"
   id="path1169" />
	<path
   d="M725.98,496.56c3.51-1.05,6.89-2.06,10.44-3.12c3.84,14.55,5.85,29.58,5.98,44.9c0.13,15.34-1.6,30.44-5.21,45.2   c-3.56-1.15-7.05-2.29-10.68-3.46C732.52,552.32,732.36,524.32,725.98,496.56z"
   id="path1171" />
	<path
   d="M694.69,601.92c-0.18,0.75-0.31,1.32-0.49,2.06c-77.27-18.12-153.96-38.13-230.28-59.97c0.2-0.76,0.36-1.4,0.55-2.14   C541.7,560.04,618.37,580,694.69,601.92z"
   id="path1173" />
	<path
   d="M463.03,661.63c-0.16-0.76-0.27-1.34-0.42-2.07c76.79-17.04,153.88-32.17,231.48-45.39c0.16,0.7,0.29,1.3,0.47,2.07   C617.74,633.3,540.65,648.39,463.03,661.63z"
   id="path1175" />
	<path
   d="M463.58,418.83c0.17-0.76,0.29-1.3,0.46-2.08c77.08,13.08,153.78,28.05,230.2,44.91c-0.11,0.77-0.19,1.39-0.31,2.21   C616.75,450.74,540.05,435.73,463.58,418.83z"
   id="path1177" />
	<path
   id="path1179"
   d="M 724.42969 583.32031 C 709.37969 583.31031 697.2307 595.4693 697.2207 610.5293 C 697.2207 625.4693 709.38063 637.62969 724.39062 637.67969 C 739.33063 637.72969 751.56008 625.53055 751.58008 610.56055 C 751.60008 595.47055 739.48969 583.33031 724.42969 583.32031 z M 721.7207 589.25 C 721.75412 589.24968 721.78693 589.25211 721.82031 589.25195 C 722.35741 589.24944 722.88808 589.27152 723.41602 589.31055 C 723.56046 589.32123 723.70593 589.32808 723.84961 589.3418 C 724.14496 589.36999 724.43855 589.40845 724.73047 589.44922 C 724.78488 589.45683 724.84024 589.46071 724.89453 589.46875 C 724.89906 589.46942 724.90367 589.47003 724.9082 589.4707 C 725.24945 589.52148 725.58973 589.58084 725.92578 589.64844 C 725.92966 589.64922 725.93363 589.64961 725.9375 589.65039 C 726.27408 589.71831 726.6066 589.79456 726.9375 589.87891 C 726.94989 589.88206 726.96222 589.8855 726.97461 589.88867 C 727.96577 590.1428 728.93143 590.47031 729.86328 590.86328 C 729.8684 590.86544 729.87379 590.86698 729.87891 590.86914 C 737.43047 594.06086 742.83008 601.61156 742.83008 610.28906 C 742.84008 622.00906 733.39906 631.34031 721.53906 631.32031 C 721.17702 631.32 720.81838 631.3098 720.46094 631.29102 C 720.10962 631.2727 719.76051 631.24474 719.41406 631.20898 C 719.41148 631.20872 719.40883 631.20925 719.40625 631.20898 C 719.05985 631.1731 718.7161 631.12907 718.375 631.07617 C 718.03072 631.02278 717.69002 630.9609 717.35156 630.89062 C 716.67526 630.7502 716.01177 630.57631 715.36133 630.37109 C 714.71089 630.16588 714.07424 629.9286 713.45312 629.66211 C 713.45258 629.66188 713.45172 629.66234 713.45117 629.66211 C 713.14146 629.5292 712.83498 629.38772 712.5332 629.24023 C 712.53268 629.23998 712.53177 629.24049 712.53125 629.24023 C 712.22948 629.09271 711.93207 628.93705 711.63867 628.77539 C 711.63818 628.77512 711.63721 628.77566 711.63672 628.77539 C 711.34283 628.61343 711.0546 628.44525 710.76953 628.26953 C 709.62873 627.56693 708.56028 626.75454 707.57812 625.84961 C 707.57778 625.84929 707.57652 625.84993 707.57617 625.84961 C 703.64635 622.22828 701.09826 617.10071 700.81641 611.36328 C 700.79879 611.00469 700.78875 610.64242 700.78906 610.2793 C 700.78906 606.2918 701.88597 602.57262 703.79883 599.4043 C 704.14655 598.82824 704.5219 598.27036 704.92188 597.73242 C 705.12191 597.46345 705.32854 597.20021 705.54102 596.94141 C 705.96585 596.42381 706.41469 595.9275 706.88672 595.45312 C 707.12248 595.21627 707.36442 594.98326 707.61133 594.75781 C 708.35328 594.08021 709.14552 593.45552 709.98047 592.88867 C 710.81451 592.32244 711.69195 591.8134 712.60742 591.36914 C 712.60795 591.36888 712.60884 591.3694 712.60938 591.36914 C 713.52596 590.92444 714.48001 590.54533 715.4668 590.23438 C 716.12485 590.02701 716.79737 589.85066 717.48242 589.70703 C 717.82525 589.63515 718.17058 589.5709 718.51953 589.51562 C 718.86847 589.46035 719.21958 589.41324 719.57422 589.375 C 720.27903 589.299 720.99588 589.25622 721.7207 589.25 z " />
	<path
   id="path1181"
   d="M 433.44922 640.32031 C 418.38922 640.31031 406.20047 652.51078 406.23047 667.55078 C 406.26047 682.55078 418.42969 694.68969 433.42969 694.67969 C 448.42969 694.66969 460.57984 682.51977 460.58984 667.50977 C 460.58984 652.49977 448.43922 640.33031 433.44922 640.32031 z M 435.66992 645.08008 C 436.03148 645.08102 436.39083 645.09046 436.74805 645.10938 C 441.03443 645.33312 444.99007 646.83884 448.23047 649.24219 C 448.23192 649.24327 448.23292 649.24502 448.23438 649.24609 C 448.50289 649.44535 448.76694 649.64995 449.02539 649.86133 C 449.02681 649.86248 449.02788 649.86408 449.0293 649.86523 C 449.28769 650.07667 449.54117 650.29252 449.78906 650.51562 C 449.79043 650.51685 449.7916 650.5183 449.79297 650.51953 C 450.0408 650.7427 450.28459 650.97262 450.52148 651.20703 C 450.52279 651.20832 450.52408 651.20965 450.52539 651.21094 C 450.76222 651.44541 450.9933 651.68442 451.21875 651.92969 C 451.22 651.93104 451.22141 651.93224 451.22266 651.93359 C 451.44805 652.17892 451.66729 652.42986 451.88086 652.68555 C 451.88204 652.68696 451.88359 652.68804 451.88477 652.68945 C 454.67726 656.03054 456.44055 660.23647 456.68164 664.82422 C 456.70019 665.17712 456.71062 665.53344 456.71094 665.89062 C 456.71219 666.62188 456.67528 667.34421 456.60547 668.05664 C 456.60541 668.05728 456.60553 668.05795 456.60547 668.05859 C 456.57059 668.41415 456.52849 668.76699 456.47656 669.11719 C 456.47647 669.11782 456.47666 669.1185 456.47656 669.11914 C 456.42461 669.46933 456.36349 669.81577 456.29492 670.16016 C 456.29467 670.16141 456.29517 670.16281 456.29492 670.16406 C 456.22642 670.50781 456.14907 670.84998 456.06445 671.1875 C 456.0643 671.18811 456.06461 671.18884 456.06445 671.18945 C 455.97965 671.52757 455.8857 671.86193 455.78516 672.19336 C 455.78479 672.19455 455.78552 672.19607 455.78516 672.19727 C 455.68473 672.52808 455.57661 672.85404 455.46094 673.17773 C 453.25584 679.35332 448.31577 684.19099 442.14062 686.16016 C 440.19095 686.78239 438.11945 687.11727 435.9707 687.11914 C 433.73383 687.12102 431.58552 686.79889 429.57227 686.19531 C 422.86019 684.18301 417.64174 679.05077 415.58398 672.43945 C 415.48143 672.11028 415.38549 671.7777 415.29883 671.44141 C 415.29851 671.44018 415.29914 671.43872 415.29883 671.4375 C 415.21207 671.10058 415.1329 670.76162 415.0625 670.41797 C 415.06237 670.41734 415.06263 670.41664 415.0625 670.41602 C 414.99213 670.07235 414.93054 669.72498 414.87695 669.375 C 414.87686 669.37436 414.87705 669.37368 414.87695 669.37305 C 414.8234 669.02305 414.77855 668.67036 414.74219 668.31445 C 414.74212 668.31381 414.74225 668.31314 414.74219 668.3125 C 414.70579 667.95594 414.67692 667.59645 414.6582 667.23438 C 414.63949 666.87202 414.63148 666.50812 414.63086 666.14062 C 414.61086 654.51063 424.04992 645.05008 435.66992 645.08008 z " />
	<path
   id="path1183"
   d="M 725.5 439.73047 C 710.49 439.41047 698.17937 451.00016 697.60938 465.91016 C 697.04938 480.34016 708.03984 493.50008 723.83984 494.08008 C 738.50984 494.62008 750.94086 483.53961 751.88086 468.59961 C 752.82086 453.58961 741.44 440.35047 725.5 439.73047 z M 723.16992 447.7207 C 732.76336 447.72914 740.88248 454.47092 743.17969 463.50977 C 743.18 463.51098 743.17938 463.51245 743.17969 463.51367 C 743.34942 464.18204 743.48944 464.86302 743.59375 465.55469 C 743.59385 465.55532 743.59365 465.556 743.59375 465.55664 C 743.64587 465.90248 743.6895 466.25057 743.72461 466.60156 C 743.72467 466.60221 743.72454 466.60287 743.72461 466.60352 C 743.75968 466.95452 743.78707 467.30836 743.80469 467.66406 C 743.82242 468.02077 743.83039 468.37926 743.83008 468.74023 C 743.82008 480.51023 734.44953 489.7307 722.51953 489.7207 C 720.36638 489.71883 718.29224 489.38411 716.3418 488.76367 C 716.01731 488.66051 715.69629 488.54842 715.37891 488.42969 C 715.37834 488.42948 715.37752 488.4299 715.37695 488.42969 C 715.05901 488.31071 714.74594 488.18494 714.43555 488.05078 C 714.12472 487.91639 713.81843 487.77419 713.51562 487.625 C 713.21374 487.47635 712.91654 487.31916 712.62305 487.15625 C 712.62256 487.15598 712.62159 487.15652 712.62109 487.15625 C 712.32761 486.99331 712.03857 486.82324 711.75391 486.64648 C 711.75344 486.6462 711.75242 486.64677 711.75195 486.64648 C 705.76431 482.92798 701.77594 476.20102 701.78906 468.50977 C 701.78969 468.14664 701.79953 467.78591 701.81836 467.42773 C 702.15237 460.98064 705.40808 455.36937 710.33789 451.80078 C 711.98116 450.61125 713.80995 449.64991 715.7793 448.95898 C 716.43498 448.72888 717.10791 448.52757 717.79297 448.35938 C 718.13589 448.27523 718.4824 448.19888 718.83203 448.13086 C 720.23029 447.85879 721.68117 447.7182 723.16992 447.7207 z " />
	<path
   id="path1185"
   d="M 434.63086 383.75977 C 419.13086 383.73977 406.95922 395.65938 406.94922 410.85938 C 406.93922 425.67938 418.96945 437.81961 433.43945 438.09961 C 448.35945 438.37961 461.24078 426.5293 461.30078 411.0293 C 461.35078 396.1293 449.25086 383.76977 434.63086 383.75977 z M 436.23047 391.56055 C 436.95859 391.56055 437.67633 391.59641 438.38477 391.66797 C 438.38541 391.66803 438.38608 391.6679 438.38672 391.66797 C 438.74028 391.70371 439.09144 391.74786 439.43945 391.80078 C 439.44072 391.80097 439.44209 391.80059 439.44336 391.80078 C 439.79072 391.85367 440.13516 391.91675 440.47656 391.98633 C 440.47781 391.98658 440.47922 391.98607 440.48047 391.98633 C 440.82185 392.05596 441.16109 392.13481 441.49609 392.2207 C 441.49732 392.22102 441.49878 392.22039 441.5 392.2207 C 441.83498 392.30666 442.16597 392.40017 442.49414 392.50195 C 450.40538 394.95266 456.27357 401.93528 457.12305 410.4668 C 457.19383 411.17765 457.23109 411.90023 457.23047 412.63086 C 457.22047 424.23086 447.64938 433.75062 436.10938 433.64062 C 424.42937 433.53062 415.16945 424.14922 415.18945 412.44922 C 415.19383 409.91391 415.64615 407.48887 416.4707 405.24609 C 416.70629 404.6053 416.97277 403.9803 417.26758 403.37109 C 419.77395 398.1917 424.35852 394.21536 429.96484 392.49414 C 431.94193 391.88715 434.04554 391.56055 436.23047 391.56055 z " />
	<path
   id="path1187"
   d="M 434.76953 509.48047 C 419.81953 509.48047 407.59984 521.55984 407.58984 536.33984 C 407.57984 551.57984 419.6307 563.7693 434.7207 563.7793 C 449.7807 563.7993 462.07023 551.54008 461.99023 536.58008 C 461.91023 521.53008 449.80953 509.48047 434.76953 509.48047 z M 436.63672 515.00586 C 436.99267 514.99816 437.35094 514.99883 437.71094 515.00977 C 443.36458 515.18322 448.35464 517.37194 452.01562 520.89258 C 452.25933 521.12695 452.49875 521.36534 452.73047 521.61133 C 452.73079 521.61166 452.73015 521.61294 452.73047 521.61328 C 452.96215 521.85927 453.18891 522.10997 453.4082 522.36719 C 453.40852 522.36756 453.40789 522.36877 453.4082 522.36914 C 453.62746 522.62635 453.8404 522.88822 454.04688 523.15625 C 454.04718 523.15665 454.04657 523.1578 454.04688 523.1582 C 454.46008 523.69469 454.84936 524.25266 455.20898 524.83008 C 455.20927 524.83054 455.2087 524.83157 455.20898 524.83203 C 455.38862 525.1205 455.5609 525.41285 455.72656 525.71094 C 455.72684 525.71143 455.72629 525.7124 455.72656 525.71289 C 455.8922 526.01098 456.05185 526.31379 456.20312 526.62109 C 456.20338 526.62161 456.20287 526.62253 456.20312 526.62305 C 456.65792 527.54712 457.04743 528.51162 457.36523 529.51172 C 457.57716 530.17864 457.75727 530.85994 457.9043 531.55664 C 457.97787 531.90529 458.04288 532.25778 458.09961 532.61328 C 458.15583 532.96562 458.20486 533.32101 458.24414 533.67969 C 458.24442 533.68227 458.24386 533.68492 458.24414 533.6875 C 458.2833 534.04624 458.31411 534.40876 458.33594 534.77344 C 458.33609 534.77604 458.33578 534.77864 458.33594 534.78125 C 458.35764 535.14599 458.37103 535.51253 458.375 535.88281 C 458.37504 535.88609 458.37496 535.8893 458.375 535.89258 C 458.37881 536.2623 458.37363 536.63492 458.35938 537.00977 C 458.35925 537.01304 458.3595 537.01625 458.35938 537.01953 C 458.3459 537.37154 458.32385 537.72078 458.29297 538.06836 C 458.27347 538.28733 458.24502 538.50363 458.21875 538.7207 C 458.20292 538.85177 458.1921 538.9849 458.17383 539.11523 C 458.17337 539.1185 458.17233 539.12174 458.17188 539.125 C 458.12368 539.4675 458.06675 539.80736 458.00195 540.14453 C 458.00133 540.14778 458.00063 540.15105 458 540.1543 C 457.93505 540.49139 457.86241 540.82492 457.78125 541.15625 C 457.78046 541.15947 457.78009 541.1628 457.7793 541.16602 C 457.69799 541.49728 457.60884 541.82535 457.51172 542.15039 C 457.51072 542.15372 457.50881 542.15683 457.50781 542.16016 C 457.41059 542.48494 457.30598 542.80687 457.19336 543.125 C 457.1922 543.12829 457.19062 543.13148 457.18945 543.13477 C 457.07668 543.4528 456.9559 543.76719 456.82812 544.07812 C 456.8268 544.08136 456.82555 544.08465 456.82422 544.08789 C 456.79955 544.14784 456.77132 544.20595 456.74609 544.26562 C 456.63906 544.51887 456.53085 544.77138 456.41406 545.01953 C 456.34277 545.17118 456.26432 545.31907 456.18945 545.46875 C 456.11459 545.61826 456.04323 545.77049 455.96484 545.91797 C 455.83395 546.1645 455.69523 546.4058 455.55469 546.64648 C 455.52523 546.69687 455.49862 546.74871 455.46875 546.79883 C 455.46681 546.80209 455.46483 546.80533 455.46289 546.80859 C 451.66421 553.18158 444.50375 557.41406 436.10938 557.07031 C 431.05109 556.85936 426.32017 554.58112 422.75 551.0957 C 422.51233 550.86379 422.2779 550.62715 422.05078 550.38477 C 422.05045 550.38441 422.05111 550.38317 422.05078 550.38281 C 421.59628 549.89771 421.16317 549.39313 420.75391 548.86914 C 420.75358 548.86873 420.75423 548.8676 420.75391 548.86719 C 419.11613 546.77003 417.8561 544.37768 417.10156 541.82031 C 417.10138 541.81971 417.10174 541.81896 417.10156 541.81836 C 416.5357 539.89983 416.2543 537.88922 416.31055 535.83984 C 416.34055 534.72609 416.4503 533.63484 416.63672 532.57227 C 416.82299 531.5097 417.08542 530.47627 417.41602 529.47656 C 417.63658 528.81007 417.88766 528.1577 418.16797 527.52344 C 418.7282 526.255 419.40377 525.05617 420.18164 523.9375 C 420.18216 523.93675 420.18307 523.93629 420.18359 523.93555 C 420.57208 523.37701 420.98638 522.83828 421.42383 522.32227 C 421.42442 522.32156 421.42519 522.32101 421.42578 522.32031 C 421.86419 521.80329 422.32652 521.30875 422.81055 520.83789 C 423.29323 520.36834 423.79579 519.92216 424.32031 519.50195 C 424.32143 519.50106 424.3231 519.50089 424.32422 519.5 C 424.58597 519.29025 424.85351 519.08551 425.125 518.88867 C 425.12617 518.88783 425.12774 518.88756 425.12891 518.88672 C 425.40043 518.68995 425.67621 518.49984 425.95703 518.31641 C 425.95825 518.31561 425.95972 518.31525 425.96094 518.31445 C 426.24179 518.13108 426.52669 517.95476 426.81641 517.78516 C 426.81766 517.78442 426.81906 517.78394 426.82031 517.7832 C 427.10931 517.6141 427.4038 517.45186 427.70117 517.29688 C 427.70323 517.2958 427.70497 517.29404 427.70703 517.29297 C 430.40255 515.8893 433.43317 515.07511 436.63672 515.00586 z " />
	<path
   d="M458.67,650.53c-0.37-0.53-0.66-0.94-1.02-1.47c0.39-0.3,0.75-0.58,1.13-0.86c34.65-25.14,69.66-49.76,104.89-74.08   c0.44-0.31,1.19-0.42,1.72-0.3c1.7,0.37,3.38,0.9,5.34,1.45C533.54,600.83,496.36,625.91,458.67,650.53z"
   id="path1189" />
	<path
   d="M694.18,472.48c0.16,0.72,0.3,1.29,0.46,2.01c-2.26,0.62-4.47,1.27-6.7,1.84c-24.62,6.38-49.23,12.79-73.86,19.11   c-10.79,2.77-21.62,5.35-32.43,8.04c-0.74,0.18-1.34,0.15-1.99-0.34c-1.43-1.08-2.93-2.06-4.66-3.26   C614.79,490.24,654.36,480.97,694.18,472.48z"
   id="path1191" />
	<path
   d="M564.46,507.77c-33.26,7.6-66.52,15.2-99.88,22.82c-0.21-0.92-0.36-1.56-0.53-2.32c2.98-0.81,5.89-1.64,8.82-2.39   c28.42-7.29,56.84-14.57,85.26-21.88c0.86-0.22,1.49-0.11,2.19,0.43c1.35,1.03,2.78,1.97,4.17,2.95   C564.48,507.51,564.47,507.64,564.46,507.77z"
   id="path1193" />
	<path
   d="M698.36,483.06c0.48,0.68,0.77,1.1,1.12,1.6c-2.38,1.73-4.68,3.44-7.02,5.1c-21.4,15.22-42.81,30.41-64.19,45.66   c-1.07,0.76-1.81,0.81-2.76-0.04c-0.74-0.66-1.61-1.18-2.72-1.97C648.04,516.6,673.15,499.87,698.36,483.06z"
   id="path1195" />
	<path
   d="M573.4,567.33c3.45-2.37,6.64-4.56,9.83-6.74c9.39-6.43,18.79-12.85,28.17-19.3c0.67-0.46,1.17-0.59,1.87-0.03   c1,0.79,2.09,1.47,3.25,2.26c-0.27,0.23-0.48,0.45-0.72,0.61c-11.61,8.06-23.24,16.11-34.84,24.18c-0.65,0.45-1.23,0.55-1.99,0.34   C577.24,568.17,575.48,567.81,573.4,567.33z"
   id="path1197" />
	
	
	
	
	
</g>
</svg>
