<?xml version="1.0" encoding="utf-8"?>
<!-- Generator: Adobe Illustrator 24.0.2, SVG Export Plug-In . SVG Version: 6.00 Build 0)  -->
<svg version="1.1" id="Warstwa_1" xmlns="http://www.w3.org/2000/svg" xmlns:xlink="http://www.w3.org/1999/xlink" x="0px" y="0px"
	 viewBox="0 0 1920 1080" style="enable-background:new 0 0 1920 1080;" xml:space="preserve">
<style type="text/css">
	.st0{fill:#FFFFFF;}
	.st1{fill:#4D4D4D;}
</style>
<g>
	<path d="M848.25,506.65c0,20.71,0,41.38,0,62.16c-4.89,0-9.78,0-14.82,0c0-7.48-0.06-14.95,0.02-22.41
		c0.08-7.43,0.3-14.85,0.46-22.52c-0.35,2.1-0.6,3.99-0.99,5.85c-1.88,8.99-3.79,17.97-5.72,26.96c-0.52,2.42-0.56,2.41-3.01,2.41
		c-3.88,0-7.75,0-11.66,0c-2.9-11.46-5.59-22.87-6.95-33.61c0.22,13.82,0.45,28.55,0.68,43.37c-4.69,0-9.07,0-13.5,0
		c0-20.77,0-41.47,0-62.25c0.4-0.02,0.75-0.06,1.11-0.06c6,0,12,0.01,18-0.02c0.81,0,1.17,0.18,1.36,1.06
		c1.9,8.86,3.93,17.7,5.76,26.58c0.61,2.96,0.76,6.02,1.12,9.03c0.04,0.3,0.06,0.59,0.33,0.9c0.09-0.85,0.13-1.7,0.27-2.53
		c1.43-8.67,2.86-17.33,4.32-26c0.46-2.72,1.02-5.42,1.5-8.13c0.11-0.61,0.27-0.91,0.96-0.91c6.8,0.03,13.6,0.02,20.4,0.03
		C847.95,506.54,848.03,506.58,848.25,506.65z"/>
	<path d="M1059.02,531.94c2.53,12.2,1.28,24.53,1.65,36.9c-4.75,0-9.36,0-14.05,0c0-20.74,0-41.44,0-62.21
		c0.32-0.04,0.63-0.1,0.93-0.1c4.2-0.01,8.4-0.03,12.6,0.03c0.44,0.01,1.1,0.34,1.27,0.71c4,8.66,8.01,17.32,11.86,26.04
		c1.46,3.31,2.53,6.79,3.86,10.2c-1.94-12.23-1.02-24.55-1.27-36.91c4.72,0,9.3,0,14,0c0,20.72,0,41.45,0,62.24
		c-0.24,0.03-0.47,0.08-0.69,0.08c-4.6,0.01-9.2,0.02-13.8-0.02c-0.4,0-1.02-0.33-1.16-0.67c-4.41-10.44-8.79-20.89-13.14-31.35
		c-0.67-1.61-1.17-3.3-1.75-4.95C1059.23,531.93,1059.12,531.93,1059.02,531.94z"/>
	<path d="M1471.81,506.59c4.82,0,9.41,0,14.05,0c0,20.77,0,41.48,0,62.33c-0.44,0-0.83,0-1.22,0c-4.36,0-8.72-0.02-13.08,0.02
		c-0.84,0.01-1.26-0.24-1.59-1.04c-4.91-11.92-10.57-23.53-14.62-35.8c-0.07-0.22-0.19-0.43-0.39-0.64
		c2.56,12.36,1.31,24.87,1.67,37.39c-4.77,0-9.39,0-14.09,0c0-20.75,0-41.44,0-62.22c0.29-0.03,0.59-0.1,0.9-0.1
		c4.24-0.01,8.48-0.02,12.72,0.02c0.41,0,1.02,0.32,1.18,0.66c4.26,9.33,8.52,18.66,12.67,28.04c1.09,2.47,1.85,5.08,2.91,7.63
		C1471.18,530.84,1472.02,518.75,1471.81,506.59z"/>
	<path d="M1396.73,568.86c-0.45,0.02-0.84,0.06-1.23,0.06c-4.32,0-8.64-0.03-12.96,0.03c-0.94,0.01-1.41-0.25-1.77-1.14
		c-4.91-11.96-10.59-23.62-14.65-35.93c-0.02-0.07-0.08-0.12-0.34-0.49c1.12,6.45,1.75,12.61,1.74,18.82c-0.01,6.19,0,12.38,0,18.64
		c-4.74,0-9.37,0-14.05,0c0-20.75,0-41.45,0-62.22c0.26-0.04,0.53-0.1,0.8-0.1c4.24-0.01,8.48-0.02,12.72,0.02
		c0.42,0,1.06,0.29,1.21,0.63c4.44,9.78,8.86,19.57,13.19,29.39c0.96,2.17,1.58,4.49,2.24,6.41c-0.3-5.76-0.75-11.83-0.91-17.91
		c-0.16-6.11-0.04-12.23-0.04-18.45c4.71,0,9.35,0,14.06,0C1396.73,527.37,1396.73,548.07,1396.73,568.86z"/>
	<path d="M1316.41,543.98c0,8.43,0,16.61,0,24.87c-5.23,0-10.37,0-15.61,0c0-20.73,0-41.43,0-62.2c0.23-0.04,0.5-0.12,0.76-0.12
		c7.92,0.03,15.84-0.07,23.75,0.19c2.99,0.1,6.04,0.76,8.9,1.68c5.51,1.76,8.7,5.69,9.62,11.45c0.59,3.72,0.54,7.4-0.26,11.08
		c-0.9,4.11-3.22,7.07-7.17,8.66c-0.81,0.33-1.63,0.64-2.56,1.01c5.3,2.25,6.53,7.18,7.9,11.91c1.51,5.21,2.76,10.5,4.13,15.76
		c0.04,0.15,0.04,0.31,0.07,0.56c-0.38,0.03-0.72,0.09-1.06,0.09c-4.8,0.01-9.6-0.02-14.4,0.02c-0.86,0.01-1.24-0.21-1.44-1.12
		c-1.44-6.23-2.94-12.44-4.44-18.65c-0.14-0.58-0.34-1.15-0.54-1.71c-0.66-1.86-1.92-3.02-3.92-3.25
		C1318.96,544.08,1317.77,544.06,1316.41,543.98z M1316.5,519.61c0,4.37,0,8.63,0,12.93c0.26,0.02,0.45,0.05,0.65,0.05
		c1.96-0.01,3.92,0.04,5.88-0.05c2.36-0.1,3.77-1.2,4.18-3.53c0.3-1.71,0.35-3.5,0.24-5.23c-0.17-2.5-1.66-3.98-4.15-4.14
		C1321.06,519.5,1318.82,519.61,1316.5,519.61z"/>
	<path d="M957.91,506.59c5.19,0,10.33,0,15.68,0c0,0.47,0,0.94,0,1.4c0,6.72,0.02,13.44-0.02,20.15c-0.01,0.98,0.26,1.3,1.27,1.28
		c3.39-0.06,6.78-0.02,10.31-0.02c0-7.64,0-15.18,0-22.8c5.27,0,10.41,0,15.61,0c0,20.73,0,41.42,0,62.22c-5.13,0-10.26,0-15.53,0
		c0-8.65,0-17.3,0-26.05c-3.91,0-7.68,0-11.61,0c0,8.67,0,17.32,0,26.06c-5.33,0-10.5,0-15.71,0
		C957.91,548.07,957.91,527.37,957.91,506.59z"/>
	<path d="M1528.64,565.48c-2.44,2.63-5.28,4.19-8.61,4.44c-9.76,0.73-18.39-2.68-22.41-13.36c-1.84-4.89-2.5-9.98-2.71-15.15
		c-0.26-6.61-0.05-13.19,1.77-19.61c1.39-4.9,3.65-9.29,7.9-12.39c2.89-2.11,6.19-3.12,9.67-3.59c5.63-0.77,11.24-0.76,16.71,1.06
		c3.21,1.06,6.79,3.15,9.06,5.26c-2.81,3.7-5.62,7.4-8.42,11.09c-1.59-1.11-3.04-2.26-4.61-3.19c-3.29-1.95-6.8-1.86-10.3-0.7
		c-1.76,0.58-2.62,2.15-3.21,3.82c-1.13,3.17-1.39,6.51-1.36,9.81c0.05,5.23,0.34,10.45,0.67,15.67c0.09,1.36,0.6,2.73,1.09,4.03
		c0.89,2.38,2.64,3.7,5.22,3.98c2.02,0.22,3.99,0.25,5.88-0.6c0.34-0.15,0.8-0.57,0.8-0.87c0.06-2.95,0.04-5.9,0.04-9.01
		c-2.05,0-3.98,0-5.99,0c0-4.33,0-8.5,0-12.75c7.15,0,14.24,0,21.43,0c0,11.79,0,23.57,0,35.52c-0.78,0-1.56,0-2.35,0
		c-2.6,0-5.2-0.02-7.8,0.01c-0.7,0.01-1.1-0.18-1.34-0.87C1529.48,567.25,1529.07,566.47,1528.64,565.48z"/>
	<path d="M1294.33,568.92c-0.8,0-1.51,0-2.22,0c-4.32,0-8.64-0.04-12.96,0.03c-1.02,0.02-1.37-0.32-1.55-1.28
		c-0.51-2.75-1.14-5.47-1.66-8.22c-0.14-0.77-0.46-0.95-1.19-0.95c-3.4,0.03-6.8,0.04-10.2,0c-0.8-0.01-1.09,0.25-1.25,1.03
		c-0.57,2.78-1.23,5.53-1.86,8.3c-0.08,0.34-0.19,0.68-0.28,1.02c-5.29,0-10.52,0-15.91,0c0.47-1.75,0.9-3.39,1.35-5.03
		c5.17-18.74,10.34-37.48,15.49-56.22c0.21-0.77,0.47-1.11,1.34-1.1c4.6,0.05,9.2,0.04,13.8,0.01c0.74,0,1.11,0.16,1.32,0.97
		c5.22,20.3,10.47,40.59,15.71,60.88C1294.31,568.46,1294.3,568.58,1294.33,568.92z M1273.24,546.93
		c-1.19-6.57-2.35-13.04-3.35-18.54c-1.09,5.52-2.37,12-3.66,18.54C1268.55,546.93,1270.89,546.93,1273.24,546.93z"/>
	<path d="M871.75,506.52c5.14,0,10.18,0.02,15.22-0.01c0.86-0.01,0.82,0.6,0.95,1.11c2.21,8.54,4.41,17.08,6.61,25.62
		c3,11.6,6,23.19,9,34.78c0.06,0.22,0.07,0.46,0.13,0.8c-0.4,0.04-0.74,0.1-1.08,0.1c-4.76,0.01-9.52-0.02-14.28,0.02
		c-0.85,0.01-1.15-0.24-1.31-1.1c-0.57-3.06-1.25-6.1-1.91-9.23c-4.04,0-8.06,0-12.2,0c-0.54,2.36-1.1,4.76-1.63,7.17
		c-0.69,3.13-0.67,3.14-3.86,3.14c-3.8,0-7.6,0-11.4,0c-0.42,0-0.85,0-1.43,0C860.32,548.04,866.02,527.35,871.75,506.52z
		 M882.57,546.94c-1.19-6.68-2.38-13.31-3.34-18.67c-1.05,5.36-2.34,11.99-3.64,18.67C877.94,546.94,880.28,546.94,882.57,546.94z"
		/>
	<path d="M1240.34,506.63c0,4.34,0,8.61,0,13.02c-6.04,0-12.05,0-18.17,0c0,3.51,0,6.89,0,10.43c4.69,0,9.42,0,14.22,0
		c0,4.34,0,8.51,0,12.79c-4.76,0-9.46,0-14.25,0c0,4.24,0,8.38,0,12.65c6.58,0,13.15,0,19.81,0c0,4.51,0,8.89,0,13.33
		c-11.81,0-23.59,0-35.47,0c0-20.72,0-41.42,0-62.22C1217.71,506.63,1228.96,506.63,1240.34,506.63z"/>
	<path d="M1134.65,506.59c0,4.43,0,8.7,0,13.12c-6.07,0-12.08,0-18.18,0c0,3.52,0,6.9,0,10.39c4.77,0,9.47,0,14.25,0
		c0,4.31,0,8.49,0,12.78c-4.76,0-9.47,0-14.25,0c0,4.24,0,8.38,0,12.64c6.58,0,13.13,0,19.75,0c0,4.5,0,8.87,0,13.32
		c-11.83,0-23.61,0-35.47,0c0-20.75,0-41.47,0-62.25C1112.05,506.59,1123.31,506.59,1134.65,506.59z"/>
	<path d="M950.09,509.91c-2.08,4.25-4.02,8.22-5.9,12.06c-1.79-0.91-3.5-1.95-5.33-2.67c-2.6-1.01-5.33-0.92-8.04-0.38
		c-1.98,0.4-3.34,1.67-3.86,3.55c-0.56,2.03-1.02,4.13-1.15,6.22c-0.36,6.19-0.5,12.38,0.35,18.55c0.16,1.18,0.41,2.36,0.73,3.51
		c1.36,4.78,3.96,6.46,8.91,5.97c3.34-0.33,6.13-1.67,8.5-4.27c2.22,3.81,4.4,7.54,6.67,11.43c-0.8,0.65-1.56,1.33-2.38,1.94
		c-4.84,3.61-10.42,4.42-16.26,4.22c-3.21-0.11-6.37-0.54-9.41-1.59c-6.21-2.14-10.02-6.6-12.17-12.65
		c-1.6-4.49-2.21-9.15-2.42-13.88c-0.31-6.89-0.11-13.75,1.77-20.45c1.11-3.97,2.84-7.64,5.85-10.57c3.14-3.06,7.03-4.5,11.28-5.08
		c6.09-0.84,12.13-0.77,17.93,1.58C946.83,508.06,948.36,509.02,950.09,509.91z"/>
	<path d="M1037.66,568.86c-9.4,0-18.62,0-27.9,0c0-2.89,0-5.71,0-8.6c1.97-0.51,3.93-1.02,5.94-1.54c0-0.42,0-0.77,0-1.13
		c0-13.24-0.01-26.47,0.02-39.71c0-0.93-0.25-1.34-1.17-1.52c-1.6-0.33-3.16-0.78-4.79-1.2c0-2.87,0-5.69,0-8.57
		c9.28,0,18.5,0,27.9,0c0,2.15,0,4.25,0,6.35c0,2.22,0,2.22-2.15,2.78c-0.93,0.24-1.85,0.54-2.79,0.68c-0.82,0.13-1,0.52-1,1.29
		c0.03,6.56,0.01,13.12,0.01,19.67c0,6.76,0.01,13.52-0.02,20.27c0,0.81,0.17,1.22,1.04,1.38c1.37,0.26,2.72,0.63,4.06,1.04
		c0.33,0.1,0.79,0.51,0.8,0.78C1037.68,563.46,1037.66,566.09,1037.66,568.86z"/>
	<path d="M1405.67,506.59c9.32,0,18.54,0,27.91,0c0,2.74,0.02,5.44-0.03,8.15c0,0.2-0.43,0.5-0.71,0.58
		c-1.42,0.41-2.84,0.8-4.29,1.11c-0.71,0.15-0.89,0.48-0.89,1.14c0.01,13.43,0.01,26.87,0,40.3c0,0.72,0.3,0.96,0.95,1.1
		c1.63,0.38,3.24,0.82,4.92,1.25c0,2.86,0,5.68,0,8.6c-9.23,0-18.45,0-27.76,0c0-2.85,0-5.7,0-8.59c1.67-0.43,3.32-0.87,4.99-1.27
		c0.62-0.15,0.93-0.36,0.93-1.09c-0.02-13.43-0.02-26.87,0-40.3c0-0.68-0.21-0.99-0.89-1.14c-1.48-0.32-2.95-0.71-4.4-1.14
		c-0.29-0.08-0.68-0.47-0.68-0.73C1405.65,511.93,1405.67,509.3,1405.67,506.59z"/>
	<path d="M1164.25,506.59c5.14,0,10.17,0,15.3,0c0,16.33,0,32.59,0,48.97c6.09,0,12.07,0,18.12,0c0,4.47,0,8.81,0,13.26
		c-11.11,0-22.21,0-33.42,0C1164.25,548.13,1164.25,527.4,1164.25,506.59z"/>
	<path d="M1131.86,444.56c1.51,0,2.86,0,4.36,0c2.65,12.94,5.3,25.86,7.83,38.25c2.8-12.39,5.72-25.3,8.65-38.23
		c1.68,0,3.18,0,4.87,0c2.83,13.03,5.65,26.05,8.29,38.19c2.48-12.1,5.14-25.1,7.82-38.16c1.37,0,2.66,0,4.11,0
		c-3.16,14.55-6.29,29.02-9.44,43.52c-1.73,0-3.4,0-5.29,0c-2.77-12.62-5.54-25.27-8.23-37.52c-0.19,1.16-0.39,2.85-0.75,4.49
		c-2.14,9.59-4.32,19.16-6.48,28.74c-0.27,1.21-0.52,2.42-0.87,3.61c-0.09,0.3-0.54,0.67-0.84,0.69c-1.23,0.08-2.48,0-3.72,0.05
		c-0.68,0.03-0.85-0.27-0.98-0.88c-2.37-10.93-4.76-21.85-7.15-32.77C1133.32,451.25,1132.6,447.98,1131.86,444.56z"/>
	<path d="M976.52,488.07c-0.14,0.04-0.18,0.07-0.22,0.07c-1.36,0-2.99,0.46-4-0.13c-0.99-0.58-1.39-2.21-1.99-3.41
		c-4.44-8.99-8.89-17.97-13.26-26.98c-1.11-2.28-1.96-4.69-2.96-7.13c0,12.55,0,25.01,0,37.58c-1.13,0-2.33,0-3.6,0
		c0-14.47,0-28.93,0-43.53c1.38,0,2.73-0.05,4.07,0.04c0.3,0.02,0.68,0.49,0.85,0.84c3.41,6.95,6.83,13.91,10.19,20.89
		c2.61,5.43,5.15,10.89,7.38,15.6c0-11.84,0-24.51,0-37.28c1.06,0,2.28,0,3.55,0C976.52,459.1,976.52,473.56,976.52,488.07z"/>
	<path d="M1125.38,465.49c-0.12,5.38-0.42,9.75-1.93,13.95c-2.52,7-7.47,9.76-14.57,9.33c-7.15-0.44-11.15-3.71-13.03-10.63
		c-2.17-7.95-2.17-15.97,0.29-23.86c1.64-5.25,4.91-9.08,10.65-10.02c8.9-1.46,15.12,2.79,17.37,11.76c0.3,1.2,0.58,2.41,0.71,3.64
		C1125.14,461.92,1125.28,464.19,1125.38,465.49z M1121.05,466.46c-0.11-4.45-0.29-9.08-2.19-13.43
		c-2.59-5.93-10.44-7.74-15.44-3.58c-1.89,1.58-2.88,3.74-3.45,6.04c-1.73,6.9-1.7,13.85-0.29,20.79c0.54,2.66,1.46,5.19,3.59,7.02
		c5.27,4.54,13.69,2.19,16.09-4.48C1120.77,474.9,1120.98,470.78,1121.05,466.46z"/>
	<path d="M856.56,467.25c-0.34,4.19-0.71,8.32-2.14,12.27c-2.42,6.7-7.27,9.66-14.75,9.26c-6.71-0.36-10.96-3.92-12.72-10.26
		c-2.35-8.51-2.51-17.1,0.64-25.44c3.56-9.42,15.56-12.32,22.83-5.68c3.02,2.76,4.44,6.43,5.11,10.34
		C856.08,460.88,856.24,464.08,856.56,467.25z M829.69,466.41c0.01,4.21,0.27,8.39,1.69,12.41c1.32,3.75,3.81,6.17,7.87,6.6
		c5.16,0.55,9.16-1.19,11.05-6.48c0.2-0.56,0.38-1.14,0.53-1.71c1.2-4.58,1.33-9.24,1.08-13.93c-0.19-3.52-0.63-7.01-2.07-10.28
		c-1.08-2.44-2.71-4.4-5.35-5.16c-5.57-1.6-11.2-0.12-13.36,6.94C829.98,458.59,829.69,462.48,829.69,466.41z"/>
	<path d="M925.42,466.41c-0.14,4.64-0.44,9.13-2.06,13.43c-2.51,6.65-7.51,9.4-14.48,8.93c-7.1-0.48-11.07-3.66-12.95-10.57
		c-2.24-8.23-2.25-16.53,0.53-24.66c1.64-4.78,4.8-8.27,9.98-9.21c7.74-1.4,14.16,1.26,17.13,9.58
		C925.03,458,925.32,462.25,925.42,466.41z M921.02,466.58c0-0.8,0.03-1.6-0.01-2.4c-0.16-3.68-0.53-7.33-1.95-10.79
		c-1.58-3.86-4.39-5.94-8.63-6.09c-4.53-0.16-7.8,1.67-9.63,5.88c-0.32,0.73-0.57,1.49-0.79,2.26c-1.3,4.48-1.33,9.07-1.19,13.68
		c0.12,3.77,0.58,7.49,2.16,10.98c1.11,2.45,2.88,4.24,5.53,4.94c4.8,1.28,10.99,0.56,13.2-7.07
		C920.79,474.24,921,470.42,921.02,466.58z"/>
	<path d="M1023.87,444.58c1.39,0,2.65,0,4.08,0c0,0.49,0,0.95,0,1.42c0,9.92-0.02,19.83,0.02,29.75c0.01,1.39,0.17,2.8,0.45,4.16
		c0.71,3.37,2.48,4.97,5.9,5.3c4.45,0.43,8.22-1.23,11.49-4.13c0.3-0.27,0.36-0.93,0.36-1.42c0.02-11.2,0.01-22.39,0.01-33.59
		c0-0.47,0-0.94,0-1.48c1.4,0,2.7,0,4.06,0c0,14.52,0,28.98,0,43.5c-0.94,0-1.84,0-2.83,0c-0.31-1.29-0.62-2.59-0.93-3.9
		c-1.45,0.99-2.77,2.01-4.2,2.84c-3.8,2.19-7.84,2.39-11.9,0.91c-3.93-1.43-5.58-4.69-6.23-8.56c-0.21-1.25-0.26-2.55-0.26-3.82
		c-0.02-9.84-0.01-19.67-0.01-29.51C1023.87,445.58,1023.87,445.11,1023.87,444.58z"/>
	<path d="M984.62,488.11c1.03-3.28,2.01-6.39,2.98-9.51c3.43-10.97,6.88-21.93,10.27-32.91c0.29-0.95,0.7-1.27,1.66-1.19
		c0.99,0.09,1.99,0.02,3.14,0.02c4.43,14.49,8.86,28.97,13.34,43.64c-1.38,0-2.64,0.05-3.88-0.04c-0.27-0.02-0.64-0.51-0.74-0.85
		c-1.22-4.01-2.42-8.02-3.56-12.05c-0.23-0.8-0.56-1.05-1.39-1.04c-4.12,0.05-8.24,0.05-12.35,0c-0.85-0.01-1.17,0.29-1.4,1.06
		c-1.28,4.28-2.61,8.55-3.93,12.87C987.42,488.11,986.11,488.11,984.62,488.11z M1006.35,470.64c-2.05-7.31-4.07-14.5-5.92-21.1
		c-1.94,6.63-4.05,13.84-6.17,21.1C998.34,470.64,1002.29,470.64,1006.35,470.64z"/>
	<path d="M1190.3,448.06c0,5.19,0,10.24,0,15.41c4.73,0,9.4,0,14.15,0c0,1.2,0,2.29,0,3.53c-4.71,0-9.41,0-14.16,0
		c0,5.93,0,11.71,0,17.65c6.09,0,12.14,0,18.26,0c0,1.22,0,2.28,0,3.43c-7.39,0-14.77,0-22.24,0c0-14.47,0-28.95,0-43.49
		c7.16,0,14.26,0,21.43,0c0,1.15,0,2.25,0,3.48C1201.9,448.06,1196.12,448.06,1190.3,448.06z"/>
	<path d="M866.79,488.09c0-5.8,0-11.58,0-17.55c-1.63,0.54-3.09,1.03-4.72,1.58c0-1.09-0.05-2.07,0.03-3.04
		c0.03-0.28,0.41-0.63,0.71-0.75c0.88-0.37,1.79-0.71,2.71-0.94c0.97-0.24,1.29-0.72,1.28-1.74c-0.05-6.52-0.03-13.03-0.03-19.55
		c0-0.47,0-0.94,0-1.49c1.38,0,2.64,0,4.06,0c0,6.89,0,13.79,0,20.85c3.38-1.18,6.57-2.3,9.93-3.48c0,1.11,0.06,2.09-0.04,3.06
		c-0.03,0.3-0.45,0.7-0.78,0.82c-2.69,0.99-5.42,1.91-8.11,2.92c-0.39,0.15-0.94,0.63-0.94,0.96c-0.06,4.91-0.04,9.83-0.04,14.93
		c5.4,0,10.73,0,16.09,0c0,1.25,0,2.31,0,3.44C880.24,488.09,873.59,488.09,866.79,488.09z"/>
	<path d="M1087.47,444.52c-5.12,6.81-10.05,13.38-15.01,19.98c5.11,7.84,10.18,15.63,15.4,23.65c-1.6,0-3.01,0.03-4.41-0.03
		c-0.23-0.01-0.48-0.37-0.65-0.61c-4.84-7.38-9.68-14.76-14.47-22.16c-0.2-0.31-0.16-1.02,0.06-1.32
		c4.68-6.33,9.39-12.63,14.12-18.92c0.21-0.28,0.62-0.54,0.95-0.56C1084.69,444.48,1085.93,444.52,1087.47,444.52z"/>
	<path d="M818.46,444.52c-1.31,1.76-2.45,3.28-3.59,4.8c-3.55,4.73-7.09,9.47-10.68,14.16c-0.58,0.76-0.62,1.25-0.09,2.06
		c4.72,7.17,9.4,14.37,14.09,21.56c0.19,0.29,0.35,0.6,0.6,1.04c-1.51,0-2.86,0.03-4.2-0.03c-0.27-0.01-0.61-0.33-0.78-0.59
		c-4.85-7.37-9.69-14.76-14.48-22.16c-0.2-0.31-0.18-1.02,0.04-1.32c4.68-6.33,9.39-12.63,14.13-18.92c0.22-0.3,0.68-0.56,1.05-0.58
		C815.73,444.48,816.93,444.52,818.46,444.52z"/>
	<path d="M797.67,488.13c-1.35,0-2.58,0-3.91,0c0-14.52,0-29,0-43.54c1.31,0,2.57,0,3.91,0
		C797.67,459.1,797.67,473.56,797.67,488.13z"/>
	<path d="M1066.63,488.11c-1.34,0-2.56,0-3.86,0c0-14.51,0-28.96,0-43.5c1.28,0,2.53,0,3.86,0
		C1066.63,459.1,1066.63,473.55,1066.63,488.11z"/>
	<path class="st0" d="M1316.5,519.61c2.32,0,4.56-0.11,6.79,0.03c2.49,0.16,3.99,1.64,4.15,4.14c0.11,1.73,0.06,3.52-0.24,5.23
		c-0.41,2.33-1.82,3.43-4.18,3.53c-1.96,0.09-3.92,0.04-5.88,0.05c-0.19,0-0.39-0.03-0.65-0.05
		C1316.5,528.24,1316.5,523.99,1316.5,519.61z"/>
	<path class="st0" d="M1273.24,546.93c-2.35,0-4.69,0-7,0c1.29-6.54,2.57-13.02,3.66-18.54
		C1270.89,533.9,1272.06,540.36,1273.24,546.93z"/>
	<path class="st0" d="M882.57,546.94c-2.29,0-4.63,0-6.98,0c1.3-6.68,2.6-13.31,3.64-18.67
		C880.19,533.63,881.37,540.26,882.57,546.94z"/>
	<path class="st1" d="M1246.39,587.87c2.22,0,4.24,0,6.48,0c1.1,6.73,2.2,13.44,3.15,19.27c0.64-5.82,1.38-12.54,2.12-19.28
		c2.88,0,5.43,0,8.21,0c-1.98,10.49-3.96,20.93-5.96,31.53c-2.47,0-4.93,0.02-7.39-0.04c-0.21-0.01-0.53-0.54-0.59-0.86
		c-0.93-5.63-1.83-11.26-2.73-16.89c-0.04-0.26-0.13-0.52-0.16-0.63c-1.03,6.04-2.08,12.2-3.13,18.38c-2.79,0-5.38,0-8.09,0
		c-1.95-10.47-3.9-20.92-5.87-31.47c2.72,0,5.33,0,8.29,0c0.86,6.57,1.74,13.2,2.49,18.93
		C1244.17,601.15,1245.27,594.57,1246.39,587.87z"/>
	<path class="st1" d="M991.33,619.34c-2.54,0-4.8,0-7.16,0c0-10.45,0-20.9,0-31.52c2.28,0,4.58-0.03,6.88,0.04
		c0.25,0.01,0.57,0.48,0.71,0.8c2.5,5.74,4.97,11.49,7.45,17.24c0.05,0.11,0.14,0.19,0.1,0.13c-0.13-5.93-0.27-12.02-0.41-18.16
		c2.5,0,4.73,0,7.07,0c0,10.44,0,20.89,0,31.55c-1.66,0-3.38-0.16-5.05,0.04c-2.09,0.25-3.04-0.53-3.78-2.5
		c-1.96-5.23-4.18-10.35-6.3-15.52c-0.05-0.13-0.1-0.27-0.06-0.16C990.96,607.13,991.14,613.19,991.33,619.34z"/>
	<path class="st1" d="M1203.61,603.04c0.36-2.27,0.57-5.12,1.31-7.82c1.38-5.02,5.13-7.76,10.33-7.88c1.71-0.04,3.45,0,5.13,0.29
		c4.03,0.69,6.71,3.14,7.88,7.01c1.8,5.95,1.82,11.98,0.03,17.93c-1.39,4.61-4.71,7.03-9.46,7.29c-2.13,0.12-4.34,0.09-6.41-0.35
		c-4.89-1.04-7.14-4.65-8.01-9.24C1204,608.08,1203.91,605.84,1203.61,603.04z M1212.2,603.47c0.24,2.41,0.35,4.8,0.76,7.15
		c0.38,2.2,1.57,3.05,3.64,3.06c2.09,0.02,3.37-0.9,3.78-3.08c0.87-4.63,0.88-9.29,0.03-13.93c-0.4-2.18-1.68-3.11-3.76-3.11
		c-2.05,0-3.28,0.86-3.69,3.03C1212.54,598.84,1212.44,601.16,1212.2,603.47z"/>
	<path class="st1" d="M817.22,603.1c0.36-2.29,0.58-5.13,1.3-7.84c1.32-4.92,4.96-7.68,10.06-7.9c1.86-0.08,3.77-0.02,5.6,0.31
		c4.53,0.83,7.04,3.88,8.07,8.17c1.29,5.36,1.31,10.78-0.13,16.11c-1.33,4.93-4.66,7.64-9.75,7.91c-2.13,0.11-4.33,0.06-6.4-0.39
		c-4.85-1.04-7.06-4.64-7.94-9.17C817.6,608.13,817.52,605.88,817.22,603.1z M834.74,603.54c-0.23-2.28-0.33-4.6-0.73-6.87
		c-0.38-2.2-1.65-3.11-3.75-3.12c-2.09-0.01-3.42,0.89-3.7,3.14c-0.38,3.15-0.49,6.35-0.5,9.53c0,1.73,0.37,3.48,0.74,5.18
		c0.25,1.17,1.1,1.88,2.33,2.14c2.58,0.55,4.41-0.47,4.87-3.06C834.41,608.22,834.51,605.89,834.74,603.54z"/>
	<path class="st1" d="M1091.67,606.98c0,4.12,0,8.19,0,12.34c-2.61,0-5.1,0-7.71,0c0-10.43,0-20.88,0-31.34
		c0.05-0.03,0.11-0.12,0.17-0.12c4.91,0.13,9.85-0.09,14.7,0.5c5.59,0.68,7.09,4.3,6.94,9.29c-0.02,0.64-0.07,1.28-0.17,1.91
		c-0.4,2.48-1.67,4.28-4.09,5.16c-0.26,0.09-0.5,0.22-0.91,0.41c2.35,1.13,3.13,3.22,3.74,5.37c0.84,2.9,1.55,5.85,2.33,8.86
		c-2.84,0-5.54,0-8.36,0c-0.64-2.71-1.28-5.42-1.93-8.12c-0.13-0.54-0.27-1.08-0.42-1.62
		C1095.27,607.16,1094.43,606.62,1091.67,606.98z M1091.68,594.43c0,1.31,0,2.5,0,3.69c0,3.44,0.05,3.47,3.52,2.95
		c1.25-0.18,1.97-0.86,2.12-2.06c0.11-0.86,0.11-1.74,0.03-2.6c-0.11-1.2-0.88-1.88-2.04-1.97
		C1094.17,594.37,1093.02,594.43,1091.68,594.43z"/>
	<path class="st1" d="M964.71,606.21c0,4.41,0,8.74,0,13.14c-2.65,0-5.15,0-7.73,0c0-10.5,0-20.94,0-31.46c2.55,0,5.05,0,7.66,0
		c0.02,0.43,0.07,0.85,0.07,1.28c0.01,3.08,0.03,6.16-0.01,9.23c-0.01,0.82,0.24,1.15,1.08,1.12c1.28-0.05,2.56-0.05,3.84,0
		c0.85,0.04,1.1-0.29,1.09-1.11c-0.04-3.08-0.02-6.16-0.01-9.23c0-0.43,0.04-0.86,0.07-1.32c2.58,0,5.05,0,7.64,0
		c0,10.47,0,20.91,0,31.46c-2.5,0-5.02,0-7.71,0c0-4.36,0-8.7,0-13.1C968.65,606.21,966.76,606.21,964.71,606.21z"/>
	<path class="st1" d="M1029.49,587.87c2.58,0,5.09,0,7.74,0c0,4.33,0,8.66,0,12.99c0.1,0.02,0.19,0.05,0.29,0.07
		c0.19-0.36,0.39-0.72,0.56-1.09c1.68-3.71,3.38-7.41,5.03-11.13c0.3-0.69,0.68-0.93,1.43-0.92c2.36,0.05,4.72,0.02,7.23,0.02
		c-0.16,0.4-0.26,0.72-0.41,1.02c-2.15,4.19-4.29,8.39-6.48,12.56c-0.36,0.69-0.35,1.19-0.01,1.87c2.4,4.78,4.77,9.58,7.14,14.38
		c0.26,0.53,0.49,1.07,0.81,1.77c-2.91,0-5.65,0.03-8.39-0.04c-0.3-0.01-0.69-0.56-0.86-0.94c-1.85-4.37-3.67-8.76-5.5-13.14
		c-0.16-0.39-0.35-0.77-0.77-1.12c0,5.03,0,10.07,0,15.18c-2.68,0-5.22,0-7.82,0C1029.49,608.86,1029.49,598.43,1029.49,587.87z"/>
	<path class="st1" d="M1303.33,600.95c1.99-4.37,3.98-8.74,5.96-13.11c2.73,0,5.41,0,8.22,0c-0.13,0.33-0.22,0.61-0.35,0.86
		c-2.11,4.12-4.19,8.26-6.36,12.35c-0.49,0.92-0.47,1.61,0,2.53c2.49,4.91,4.9,9.87,7.33,14.81c0.14,0.28,0.26,0.56,0.47,1.01
		c-2.9,0-5.64,0.03-8.38-0.04c-0.31-0.01-0.72-0.54-0.88-0.91c-1.87-4.41-3.7-8.84-5.54-13.26c-0.15-0.36-0.31-0.72-0.71-1.04
		c0,5.02,0,10.03,0,15.15c-2.7,0-5.22,0-7.83,0c0-10.48,0-20.93,0-31.43c2.58,0,5.08,0,7.75,0c0,4.37,0,8.69,0,13.01
		C1303.11,600.9,1303.22,600.92,1303.33,600.95z"/>
	<path class="st1" d="M800.56,608.26c0,1.89,0,3.72,0,5.56c0,1.83,0,3.66,0,5.52c-2.67,0-5.17,0-7.74,0c0-10.52,0-20.96,0-31.77
		c5.03,0.26,9.99,0.24,14.87,0.87c4.18,0.53,6.1,3.15,6.47,7.96c0.15,1.92-0.04,3.93-0.47,5.82c-0.84,3.66-3.68,5.15-7.1,5.64
		C804.67,608.13,802.71,608.13,800.56,608.26z M800.56,594.37c0,2.41-0.01,4.63,0.02,6.85c0,0.22,0.31,0.62,0.5,0.63
		c3.79,0.23,5.3-0.31,5.09-4.21c-0.13-2.54-0.97-3.26-3.53-3.27C802.02,594.37,801.39,594.37,800.56,594.37z"/>
	<path class="st1" d="M1289.34,589.42c-0.91,1.95-1.76,3.78-2.48,5.33c-2.13-0.35-4.1-0.89-6.08-0.93c-2.26-0.04-3.44,1.84-2.5,3.74
		c0.33,0.66,1.15,1.19,1.87,1.5c1.24,0.53,2.59,0.8,3.87,1.25c5.09,1.8,7.25,5.25,6.61,10.63c-0.16,1.33-0.42,2.71-0.93,3.94
		c-1.29,3.15-4,4.45-7.16,4.9c-4.32,0.62-8.52,0.14-12.51-1.74c-0.42-0.2-0.82-0.47-1.3-0.75c0.81-2.07,1.6-4.06,2.29-5.81
		c2.12,0.65,4.1,1.38,6.14,1.83c1,0.22,2.15,0.04,3.18-0.2c1.3-0.3,2-1.33,2.06-2.62c0.07-1.6-0.3-2.27-1.82-2.85
		c-1.49-0.56-3.05-0.95-4.54-1.52c-4.96-1.89-6.27-5.29-6.03-9.78c0.31-5.85,3.85-8.98,9.76-9.07c3.08-0.04,6.06,0.26,8.84,1.7
		C1288.83,589.11,1289.03,589.24,1289.34,589.42z"/>
	<path class="st1" d="M1154.68,617.29c0.82-2.08,1.61-4.07,2.3-5.81c2.14,0.66,4.12,1.37,6.15,1.85c0.89,0.21,1.91,0.06,2.84-0.11
		c1.47-0.27,2.33-1.34,2.42-2.73c0.1-1.51-0.4-2.3-1.97-2.88c-1.42-0.52-2.89-0.92-4.31-1.43c-3.66-1.31-5.77-3.85-6.11-7.78
		c-0.58-6.67,2.77-10.95,9.72-11.08c4.41-0.08,6.97,0.52,9.57,2.11c-0.87,1.88-1.75,3.77-2.48,5.33c-2.12-0.36-4.01-0.87-5.92-0.96
		c-2.04-0.09-3.06,1.14-2.9,2.95c0.11,1.18,0.79,1.9,1.85,2.26c1.36,0.46,2.74,0.85,4.11,1.29c5.45,1.75,6.96,5.36,6.66,10.49
		c-0.04,0.67-0.17,1.35-0.29,2.01c-0.68,3.66-2.91,5.9-6.49,6.7c-4.99,1.11-9.83,0.6-14.42-1.76
		C1155.19,617.63,1154.99,617.49,1154.68,617.29z"/>
	<path class="st1" d="M1134.22,587.87c5.7,0,11.32,0,17.02,0c0,2.16,0,4.26,0,6.58c-0.53,0-1.07,0-1.61,0c-2.2,0-4.4,0.02-6.6-0.01
		c-0.74-0.01-1.11,0.18-1.08,1c0.05,1.39,0.01,2.78,0.01,4.33c2.49,0,4.86,0,7.3,0c0,2.21,0,4.26,0,6.45
		c-2.08,0-4.11,0.04-6.13-0.02c-0.88-0.02-1.22,0.24-1.18,1.15c0.06,1.44,0.05,2.88,0,4.32c-0.03,0.83,0.25,1.12,1.1,1.11
		c2.96-0.04,5.91-0.02,8.99-0.02c0,2.23,0,4.39,0,6.6c-5.95,0-11.85,0-17.82,0C1134.22,608.82,1134.22,598.37,1134.22,587.87z"/>
	<path class="st1" d="M1339.33,619.31c0-10.46,0-20.88,0-31.4c5.65,0,11.3,0,17.05,0c0,2.11,0,4.24,0,6.54c-2.19,0-4.38,0-6.56,0
		c-2.71,0-2.71,0-2.71,2.69c0,0.83,0,1.66,0,2.61c2.45,0,4.79,0,7.25,0c0,2.2,0,4.28,0,6.46c-2.1,0-4.13,0.03-6.17-0.02
		c-0.84-0.02-1.13,0.26-1.09,1.09c0.06,1.44,0.06,2.88,0,4.32c-0.04,0.89,0.25,1.18,1.15,1.16c2.92-0.05,5.83-0.02,8.87-0.02
		c0,2.19,0,4.32,0,6.56C1351.26,619.31,1345.37,619.31,1339.33,619.31z"/>
	<path class="st1" d="M928.5,612.71c0,2.31,0,4.41,0,6.61c-5.93,0-11.82,0-17.83,0c0-10.44,0-20.89,0-31.42c5.62,0,11.24,0,16.97,0
		c0,2.14,0,4.3,0,6.58c-3.06,0-6.05,0-9.11,0c0,1.8,0,3.49,0,5.29c2.34,0,4.64,0,7.06,0c0,2.15,0,4.2,0,6.4c-2.3,0-4.63,0-7.05,0
		c0,2.24,0,4.33,0,6.55C921.84,612.71,925.1,612.71,928.5,612.71z"/>
	<path class="st1" d="M1118.7,612.71c3.76,0,7.26,0,10.86,0c0,2.24,0,4.37,0,6.61c-6.58,0-13.19,0-20.01,0
		c0.23-2.34-0.56-4.71,0.81-7.03c3.21-5.43,6.26-10.95,9.37-16.44c0.21-0.37,0.41-0.75,0.73-1.34c-3.35,0-6.51,0-9.76,0
		c0-2.29,0-4.43,0-6.63c6.31,0,12.56,0,18.94,0c0,1.83,0.03,3.62-0.02,5.4c-0.01,0.4-0.31,0.81-0.52,1.19
		c-3.21,5.62-6.42,11.23-9.63,16.85C1119.25,611.69,1119.05,612.07,1118.7,612.71z"/>
	<path class="st1" d="M1200.21,587.89c0,1.81,0.03,3.53-0.02,5.24c-0.02,0.44-0.28,0.9-0.51,1.31c-3.22,5.65-6.46,11.3-9.7,16.95
		c-0.21,0.37-0.39,0.75-0.7,1.33c3.75,0,7.28,0,10.87,0c0,2.26,0,4.36,0,6.58c-6.62,0-13.26,0-20.02,0c0.09-2.64-0.4-5.19,1.18-7.74
		c3.17-5.12,6.01-10.45,8.98-15.69c0.23-0.4,0.43-0.82,0.73-1.4c-3.35,0-6.49,0-9.73,0c0-2.24,0-4.37,0-6.59
		C1187.56,587.89,1193.81,587.89,1200.21,587.89z"/>
	<path class="st1" d="M949.76,595.7c-1.77-1.43-3.63-1.97-5.72-1.79c-1.92,0.17-3.02,0.85-3.2,2.76c-0.31,3.32-0.32,6.68-0.39,10.03
		c-0.02,0.87,0.19,1.74,0.33,2.61c0.66,4.01,3.05,4.79,6.68,3.6c0.88-0.29,1.63-0.96,2.54-1.52c1.04,1.79,2.12,3.64,3.22,5.52
		c-2.26,2.22-4.99,3.11-7.98,3.11c-1.7,0-3.45-0.14-5.1-0.51c-4.63-1.04-6.91-4.38-7.79-8.75c-1-4.98-1.04-10.01,0.17-14.98
		c1.36-5.62,4.99-8.38,10.79-8.48c2.83-0.05,5.58,0.16,8.16,1.48c0.98,0.5,1.38,0.97,0.72,2.1
		C951.27,592.38,950.59,594,949.76,595.7z"/>
	<path class="st1" d="M906.39,587.91c0,2.13,0,4.24,0,6.5c-2.09,0-4.18,0-6.46,0c0,8.4,0,16.64,0,24.94c-2.65,0-5.12,0-7.74,0
		c0-8.24,0-16.48,0-24.88c-2.25,0-4.34,0-6.51,0c0-2.26,0-4.36,0-6.56C892.55,587.91,899.4,587.91,906.39,587.91z"/>
	<path class="st1" d="M1369.6,587.9c0,0.48,0,0.91,0,1.34c0,9.44,0.01,18.87,0,28.31c0,5.31-2.71,8.95-7.74,10.54
		c-0.78,0.25-1.22,0.22-1.6-0.61c-0.69-1.48-1.5-2.9-2.3-4.44c0.51-0.44,1.01-0.88,1.52-1.31c1.36-1.15,2.11-2.61,2.12-4.38
		c0.07-9.23,0.12-18.47,0.18-27.7c0-0.55,0-1.11,0-1.75C1364.37,587.9,1366.87,587.9,1369.6,587.9z"/>
	<path class="st1" d="M1054.86,619.34c0-1.26-0.06-2.45,0.04-3.63c0.03-0.3,0.56-0.68,0.93-0.79c1.97-0.59,1.98-0.56,1.98-2.58
		c0-6-0.04-12,0.03-18c0.01-1.16-0.34-1.73-1.46-1.8c-1.25-0.07-1.72-0.66-1.56-1.92c0.11-0.86,0.02-1.75,0.02-2.72
		c4.69,0,9.3,0,14.07,0c0,1.25,0.04,2.52-0.04,3.78c-0.01,0.23-0.49,0.54-0.8,0.64c-2.25,0.7-2.25,0.69-2.25,3.1
		c0,5.84,0.04,11.68-0.03,17.52c-0.01,1.17,0.34,1.67,1.45,1.8c0.55,0.06,1.07,0.29,1.62,0.45c0,1.39,0,2.73,0,4.15
		C1064.24,619.34,1059.65,619.34,1054.86,619.34z"/>
	<path class="st1" d="M868.33,587.85c4.78,0,9.33,0,14.05,0c0,1.3,0.06,2.57-0.05,3.83c-0.02,0.28-0.63,0.62-1.02,0.74
		c-1.97,0.58-1.98,0.55-1.98,2.55c0,6.08,0.02,12.15-0.02,18.23c-0.01,0.85,0.2,1.28,1.08,1.48c2.01,0.47,2,0.51,2,2.53
		c0,0.71,0,1.41,0,2.16c-4.73,0-9.28,0-14.05,0c0-1.27-0.04-2.53,0.04-3.79c0.02-0.24,0.5-0.55,0.83-0.64
		c2.12-0.63,2.12-0.61,2.12-2.82c0-5.96-0.03-11.91,0.02-17.87c0.01-1.03-0.26-1.6-1.32-1.66c-1.39-0.07-1.95-0.73-1.74-2.15
		C868.43,589.63,868.33,588.78,868.33,587.85z"/>
	<path class="st1" d="M855.47,612.75c3.16,0,6.1,0,9.15,0c0,2.22,0,4.35,0,6.57c-5.57,0-11.14,0-16.79,0c0-10.47,0-20.92,0-31.44
		c2.53,0,5.02,0,7.64,0C855.47,596.14,855.47,604.36,855.47,612.75z"/>
	<path class="st1" d="M1334.58,619.35c-4.72,0-9.3,0-13.95,0c0-1.4,0-2.75,0-4.17c0.74-0.21,1.54-0.35,2.25-0.66
		c0.33-0.14,0.74-0.62,0.74-0.95c0.04-6.59,0.02-13.19,0.05-19.78c0-0.72-0.31-0.93-0.95-1.1c-2.17-0.56-2.16-0.59-2.16-2.86
		c0-0.63,0-1.26,0-1.95c4.7,0,9.28,0,14.07,0c0,1.27,0.05,2.57-0.04,3.86c-0.02,0.24-0.58,0.55-0.94,0.65
		c-2.08,0.6-2.08,0.59-2.08,2.74c0,5.87,0.04,11.75-0.03,17.62c-0.01,1.2,0.25,1.88,1.53,1.99c0.5,0.04,0.99,0.27,1.52,0.43
		C1334.58,616.56,1334.58,617.91,1334.58,619.35z"/>
	<path class="st1" d="M1010.7,587.87c4.73,0,9.31,0,14.09,0c0,1.3,0.05,2.6-0.05,3.89c-0.02,0.24-0.61,0.52-0.97,0.63
		c-2.28,0.68-2.03,0.05-2.04,2.67c-0.01,6.04,0.02,12.07-0.02,18.11c-0.01,0.94,0.29,1.33,1.21,1.53c1.9,0.4,1.89,0.45,1.89,2.35
		c0,0.72,0,1.44,0,2.26c-4.67,0-9.29,0-14,0c0-1.34,0-2.71,0-4.1c0.17-0.07,0.35-0.18,0.54-0.23c2.43-0.69,2.43-0.69,2.43-3.17
		c0-5.84-0.02-11.67,0.02-17.51c0.01-1.01-0.26-1.49-1.29-1.72c-1.82-0.4-1.81-0.46-1.81-2.29
		C1010.69,589.53,1010.7,588.77,1010.7,587.87z"/>
	<path class="st0" d="M1121.05,466.46c-0.07,4.33-0.27,8.44-1.69,12.37c-2.4,6.67-10.81,9.02-16.09,4.48
		c-2.14-1.84-3.05-4.37-3.59-7.02c-1.41-6.94-1.44-13.89,0.29-20.79c0.58-2.31,1.56-4.46,3.45-6.04c5-4.17,12.85-2.36,15.44,3.58
		C1120.75,457.37,1120.94,462.01,1121.05,466.46z"/>
	<path class="st0" d="M829.69,466.41c-0.01-3.93,0.28-7.82,1.44-11.61c2.16-7.06,7.8-8.54,13.36-6.94c2.64,0.76,4.27,2.71,5.35,5.16
		c1.44,3.27,1.88,6.76,2.07,10.28c0.25,4.69,0.12,9.35-1.08,13.93c-0.15,0.58-0.33,1.15-0.53,1.71c-1.89,5.3-5.89,7.04-11.05,6.48
		c-4.06-0.44-6.55-2.86-7.87-6.6C829.97,474.8,829.71,470.62,829.69,466.41z"/>
	<path class="st0" d="M921.02,466.58c-0.03,3.84-0.24,7.65-1.31,11.38c-2.2,7.64-8.4,8.35-13.2,7.07c-2.65-0.7-4.41-2.49-5.53-4.94
		c-1.58-3.49-2.04-7.21-2.16-10.98c-0.14-4.6-0.11-9.2,1.19-13.68c0.22-0.77,0.48-1.53,0.79-2.26c1.83-4.2,5.1-6.03,9.63-5.88
		c4.23,0.15,7.04,2.22,8.63,6.09c1.42,3.46,1.79,7.11,1.95,10.79C921.06,464.98,921.02,465.78,921.02,466.58z"/>
	<path class="st0" d="M1006.35,470.64c-4.06,0-8.01,0-12.09,0c2.13-7.27,4.23-14.48,6.17-21.1
		C1002.28,456.14,1004.3,463.33,1006.35,470.64z"/>
	<path d="M378.75,533.76c0.15-1.89,0.32-3.79,0.44-5.68c1.52-23.48,7.38-45.82,17.59-67.02c4.78-9.93,10.43-19.33,16.94-28.22
		c0.23-0.32,0.48-0.63,0.71-0.94c2.17,1.67,4.31,3.31,6.54,5.03c-20.23,30.81-30.45,64.84-30.6,101.76
		c-0.16,36.94,9.76,71.07,29.8,102.18c-1.26,0.87-2.51,1.66-3.68,2.56c-1.14,0.87-2.19,1.86-3.38,2.88
		c-0.23-0.31-0.49-0.63-0.73-0.97c-14.58-20.54-24.49-43.13-29.71-67.77c-2.12-10.03-3.38-20.17-3.72-30.42
		c-0.01-0.3-0.13-0.6-0.19-0.89C378.75,542.08,378.75,537.92,378.75,533.76z"/>
	<path d="M556.35,721.92c-0.78-0.08-1.56-0.2-2.34-0.23c-20.43-0.71-40.17-4.76-59.23-12.15c-14.04-5.44-27.18-12.55-39.45-21.27
		c-0.29-0.2-0.56-0.43-0.86-0.65c1.35-1.58,2.66-3.12,4.03-4.73c1.14,0.86,2.3,1.76,3.48,2.64c19.86,14.83,41.88,24.89,66.18,29.85
		c15.77,3.22,31.68,4.02,47.72,2.52c20.48-1.91,39.91-7.5,58.24-16.79c26.4-13.38,47.81-32.49,64.58-56.82
		c2.49-3.61,4.79-7.36,7.15-11c2.71,1.35,5.47,2.73,8.39,4.19c-2.17,3.14-4.33,6.43-6.66,9.6c-17.76,24.21-40.08,43.01-67.01,56.28
		c-15.79,7.78-32.4,13.09-49.78,15.97c-8.29,1.37-16.63,2.23-25.04,2.41c-0.26,0.01-0.51,0.13-0.77,0.19
		C562.11,721.92,559.23,721.92,556.35,721.92z"/>
	<path d="M564.99,358.08c0.73,0.08,1.47,0.2,2.2,0.22c22.78,0.8,44.64,5.7,65.55,14.74c19.86,8.59,37.61,20.38,53.28,35.31
		c9.68,9.22,18.24,19.37,25.69,30.47c0.24,0.36,0.46,0.73,0.65,1.03c-2.52,1.42-4.98,2.81-7.56,4.26c-0.14-0.21-0.37-0.56-0.59-0.92
		c-16.44-26.82-38.23-48.07-65.92-63.12c-16.9-9.19-34.9-15.16-53.94-17.96c-8.01-1.18-16.05-1.79-24.13-1.74
		c-32.42,0.21-62.21,9.22-89.37,26.91c-3.78,2.46-7.42,5.14-11.21,7.79c-1.03-1.27-2.12-2.62-3.3-4.08c1.94-1.3,3.87-2.63,5.84-3.89
		c20.98-13.48,43.75-22.33,68.35-26.43c8.25-1.38,16.55-2.21,24.92-2.4c0.3-0.01,0.6-0.13,0.9-0.19
		C559.23,358.08,562.11,358.08,564.99,358.08z"/>
	<path d="M459.18,428.21c0.41-0.61,0.7-1.04,1.09-1.63c80.67,53.79,160.12,109.23,238.43,166.45c-0.34,0.56-0.62,1.02-1.01,1.64
		C616.96,540.89,537.53,485.42,459.18,428.21z"/>
	<path d="M725.98,496.56c3.51-1.05,6.89-2.06,10.44-3.12c3.84,14.55,5.85,29.58,5.98,44.9c0.13,15.34-1.6,30.44-5.21,45.2
		c-3.56-1.15-7.05-2.29-10.68-3.46C732.52,552.32,732.36,524.32,725.98,496.56z"/>
	<path d="M694.69,601.92c-0.18,0.75-0.31,1.32-0.49,2.06c-77.27-18.12-153.96-38.13-230.28-59.97c0.2-0.76,0.36-1.4,0.55-2.14
		C541.7,560.04,618.37,580,694.69,601.92z"/>
	<path d="M463.03,661.63c-0.16-0.76-0.27-1.34-0.42-2.07c76.79-17.04,153.88-32.17,231.48-45.39c0.16,0.7,0.29,1.3,0.47,2.07
		C617.74,633.3,540.65,648.39,463.03,661.63z"/>
	<path d="M463.58,418.83c0.17-0.76,0.29-1.3,0.46-2.08c77.08,13.08,153.78,28.05,230.2,44.91c-0.11,0.77-0.19,1.39-0.31,2.21
		C616.75,450.74,540.05,435.73,463.58,418.83z"/>
	<path d="M724.43,583.32c15.06,0.01,27.17,12.15,27.15,27.24c-0.02,14.97-12.25,27.17-27.19,27.12
		c-15.01-0.05-27.17-12.21-27.17-27.15C697.23,595.47,709.38,583.31,724.43,583.32z M700.79,610.28c0,11.62,9.27,21.03,20.74,21.04
		c11.86,0.01,21.3-9.31,21.29-21.03c-0.01-11.57-9.61-21.15-21.1-21.04C710.07,589.35,700.79,598.68,700.79,610.28z"/>
	<path d="M433.43,694.68c-15,0.01-27.17-12.13-27.2-27.13c-0.03-15.04,12.16-27.24,27.22-27.23c14.99,0.01,27.14,12.18,27.14,27.19
		C460.58,682.52,448.43,694.67,433.43,694.68z M414.63,666.14c0.02,11.75,9.41,20.99,21.34,20.98c11.46-0.01,20.76-9.52,20.74-21.23
		c-0.02-11.43-9.47-20.79-21.04-20.81C424.05,645.05,414.61,654.51,414.63,666.14z"/>
	<path d="M725.5,439.73c15.94,0.62,27.32,13.86,26.38,28.87c-0.94,14.94-13.37,26.02-28.04,25.48
		c-15.8-0.58-26.79-13.74-26.23-28.17C698.18,451,710.49,439.41,725.5,439.73z M743.83,468.74c0.01-11.54-9.29-21.01-20.66-21.02
		c-11.91-0.02-21.37,9.17-21.38,20.79c-0.02,11.72,9.25,21.2,20.73,21.21C734.45,489.73,743.82,480.51,743.83,468.74z"/>
	<path d="M406.95,410.86c0.01-15.2,12.18-27.12,27.68-27.1c14.62,0.01,26.72,12.37,26.67,27.27c-0.06,15.5-12.94,27.35-27.86,27.07
		C418.97,437.82,406.94,425.68,406.95,410.86z M436.23,391.56c-11.65,0-21.02,9.3-21.04,20.89c-0.02,11.7,9.24,21.08,20.92,21.19
		c11.54,0.11,21.11-9.41,21.12-21.01C457.23,400.94,447.88,391.56,436.23,391.56z"/>
	<path d="M434.77,509.48c15.04,0,27.14,12.05,27.22,27.1c0.08,14.96-12.21,27.22-27.27,27.2c-15.09-0.01-27.14-12.2-27.13-27.44
		C407.6,521.56,419.82,509.48,434.77,509.48z M416.31,535.84c-0.3,10.93,9.01,20.78,19.8,21.23c12.21,0.5,21.81-8.68,22.25-20.05
		c0.46-12.11-8.59-21.64-20.65-22C426.18,514.66,416.63,523.96,416.31,535.84z"/>
	<path d="M458.67,650.53c-0.37-0.53-0.66-0.94-1.02-1.47c0.39-0.3,0.75-0.58,1.13-0.86c34.65-25.14,69.66-49.76,104.89-74.08
		c0.44-0.31,1.19-0.42,1.72-0.3c1.7,0.37,3.38,0.9,5.34,1.45C533.54,600.83,496.36,625.91,458.67,650.53z"/>
	<path d="M694.18,472.48c0.16,0.72,0.3,1.29,0.46,2.01c-2.26,0.62-4.47,1.27-6.7,1.84c-24.62,6.38-49.23,12.79-73.86,19.11
		c-10.79,2.77-21.62,5.35-32.43,8.04c-0.74,0.18-1.34,0.15-1.99-0.34c-1.43-1.08-2.93-2.06-4.66-3.26
		C614.79,490.24,654.36,480.97,694.18,472.48z"/>
	<path d="M564.46,507.77c-33.26,7.6-66.52,15.2-99.88,22.82c-0.21-0.92-0.36-1.56-0.53-2.32c2.98-0.81,5.89-1.64,8.82-2.39
		c28.42-7.29,56.84-14.57,85.26-21.88c0.86-0.22,1.49-0.11,2.19,0.43c1.35,1.03,2.78,1.97,4.17,2.95
		C564.48,507.51,564.47,507.64,564.46,507.77z"/>
	<path d="M698.36,483.06c0.48,0.68,0.77,1.1,1.12,1.6c-2.38,1.73-4.68,3.44-7.02,5.1c-21.4,15.22-42.81,30.41-64.19,45.66
		c-1.07,0.76-1.81,0.81-2.76-0.04c-0.74-0.66-1.61-1.18-2.72-1.97C648.04,516.6,673.15,499.87,698.36,483.06z"/>
	<path d="M573.4,567.33c3.45-2.37,6.64-4.56,9.83-6.74c9.39-6.43,18.79-12.85,28.17-19.3c0.67-0.46,1.17-0.59,1.87-0.03
		c1,0.79,2.09,1.47,3.25,2.26c-0.27,0.23-0.48,0.45-0.72,0.61c-11.61,8.06-23.24,16.11-34.84,24.18c-0.65,0.45-1.23,0.55-1.99,0.34
		C577.24,568.17,575.48,567.81,573.4,567.33z"/>
	<path class="st0" d="M700.79,610.28c0-11.6,9.28-20.93,20.94-21.03c11.5-0.1,21.1,9.47,21.1,21.04
		c0.01,11.72-9.43,21.05-21.29,21.03C710.06,631.31,700.78,621.9,700.79,610.28z"/>
	<path class="st0" d="M414.63,666.14c-0.02-11.63,9.42-21.09,21.04-21.06c11.57,0.03,21.03,9.38,21.04,20.81
		c0.02,11.7-9.28,21.22-20.74,21.23C424.04,687.13,414.65,677.9,414.63,666.14z"/>
	<path class="st0" d="M743.83,468.74c-0.01,11.77-9.38,20.99-21.31,20.98c-11.48-0.01-20.74-9.49-20.73-21.21
		c0.02-11.62,9.47-20.81,21.38-20.79C734.53,447.74,743.84,457.21,743.83,468.74z"/>
	<path class="st0" d="M436.23,391.56c11.66,0,21.01,9.38,21,21.07c-0.01,11.6-9.58,21.12-21.12,21.01
		c-11.68-0.11-20.94-9.49-20.92-21.19C415.21,400.86,424.57,391.56,436.23,391.56z"/>
	<path class="st0" d="M416.31,535.84c0.32-11.88,9.88-21.18,21.4-20.83c12.06,0.37,21.11,9.9,20.65,22
		c-0.43,11.37-10.04,20.55-22.25,20.05C425.32,556.62,416.01,546.77,416.31,535.84z"/>
</g>
</svg>
