<?xml version="1.0" encoding="UTF-8"?>
<svg version="1.1" baseProfile="tiny" xmlns="http://www.w3.org/2000/svg" width="1000" height="1000">
<rect shape-rendering="optimizeSpeed"  x="0" y="0" width="1000" height="1000" fill="white" />
<rect shape-rendering="optimizeSpeed"  x="36" y="36" width="32" height="32" fill="black" />
<rect shape-rendering="optimizeSpeed"  x="68" y="36" width="32" height="32" fill="black" />
<rect shape-rendering="optimizeSpeed"  x="100" y="36" width="32" height="32" fill="black" />
<rect shape-rendering="optimizeSpeed"  x="132" y="36" width="32" height="32" fill="black" />
<rect shape-rendering="optimizeSpeed"  x="164" y="36" width="32" height="32" fill="black" />
<rect shape-rendering="optimizeSpeed"  x="196" y="36" width="32" height="32" fill="black" />
<rect shape-rendering="optimizeSpeed"  x="228" y="36" width="32" height="32" fill="black" />
<rect shape-rendering="optimizeSpeed"  x="356" y="36" width="32" height="32" fill="black" />
<rect shape-rendering="optimizeSpeed"  x="420" y="36" width="32" height="32" fill="black" />
<rect shape-rendering="optimizeSpeed"  x="548" y="36" width="32" height="32" fill="black" />
<rect shape-rendering="optimizeSpeed"  x="580" y="36" width="32" height="32" fill="black" />
<rect shape-rendering="optimizeSpeed"  x="612" y="36" width="32" height="32" fill="black" />
<rect shape-rendering="optimizeSpeed"  x="644" y="36" width="32" height="32" fill="black" />
<rect shape-rendering="optimizeSpeed"  x="676" y="36" width="32" height="32" fill="black" />
<rect shape-rendering="optimizeSpeed"  x="740" y="36" width="32" height="32" fill="black" />
<rect shape-rendering="optimizeSpeed"  x="772" y="36" width="32" height="32" fill="black" />
<rect shape-rendering="optimizeSpeed"  x="804" y="36" width="32" height="32" fill="black" />
<rect shape-rendering="optimizeSpeed"  x="836" y="36" width="32" height="32" fill="black" />
<rect shape-rendering="optimizeSpeed"  x="868" y="36" width="32" height="32" fill="black" />
<rect shape-rendering="optimizeSpeed"  x="900" y="36" width="32" height="32" fill="black" />
<rect shape-rendering="optimizeSpeed"  x="932" y="36" width="32" height="32" fill="black" />
<rect shape-rendering="optimizeSpeed"  x="36" y="68" width="32" height="32" fill="black" />
<rect shape-rendering="optimizeSpeed"  x="228" y="68" width="32" height="32" fill="black" />
<rect shape-rendering="optimizeSpeed"  x="292" y="68" width="32" height="32" fill="black" />
<rect shape-rendering="optimizeSpeed"  x="356" y="68" width="32" height="32" fill="black" />
<rect shape-rendering="optimizeSpeed"  x="516" y="68" width="32" height="32" fill="black" />
<rect shape-rendering="optimizeSpeed"  x="676" y="68" width="32" height="32" fill="black" />
<rect shape-rendering="optimizeSpeed"  x="740" y="68" width="32" height="32" fill="black" />
<rect shape-rendering="optimizeSpeed"  x="932" y="68" width="32" height="32" fill="black" />
<rect shape-rendering="optimizeSpeed"  x="36" y="100" width="32" height="32" fill="black" />
<rect shape-rendering="optimizeSpeed"  x="100" y="100" width="32" height="32" fill="black" />
<rect shape-rendering="optimizeSpeed"  x="132" y="100" width="32" height="32" fill="black" />
<rect shape-rendering="optimizeSpeed"  x="164" y="100" width="32" height="32" fill="black" />
<rect shape-rendering="optimizeSpeed"  x="228" y="100" width="32" height="32" fill="black" />
<rect shape-rendering="optimizeSpeed"  x="420" y="100" width="32" height="32" fill="black" />
<rect shape-rendering="optimizeSpeed"  x="484" y="100" width="32" height="32" fill="black" />
<rect shape-rendering="optimizeSpeed"  x="548" y="100" width="32" height="32" fill="black" />
<rect shape-rendering="optimizeSpeed"  x="612" y="100" width="32" height="32" fill="black" />
<rect shape-rendering="optimizeSpeed"  x="676" y="100" width="32" height="32" fill="black" />
<rect shape-rendering="optimizeSpeed"  x="740" y="100" width="32" height="32" fill="black" />
<rect shape-rendering="optimizeSpeed"  x="804" y="100" width="32" height="32" fill="black" />
<rect shape-rendering="optimizeSpeed"  x="836" y="100" width="32" height="32" fill="black" />
<rect shape-rendering="optimizeSpeed"  x="868" y="100" width="32" height="32" fill="black" />
<rect shape-rendering="optimizeSpeed"  x="932" y="100" width="32" height="32" fill="black" />
<rect shape-rendering="optimizeSpeed"  x="36" y="132" width="32" height="32" fill="black" />
<rect shape-rendering="optimizeSpeed"  x="100" y="132" width="32" height="32" fill="black" />
<rect shape-rendering="optimizeSpeed"  x="132" y="132" width="32" height="32" fill="black" />
<rect shape-rendering="optimizeSpeed"  x="164" y="132" width="32" height="32" fill="black" />
<rect shape-rendering="optimizeSpeed"  x="228" y="132" width="32" height="32" fill="black" />
<rect shape-rendering="optimizeSpeed"  x="292" y="132" width="32" height="32" fill="black" />
<rect shape-rendering="optimizeSpeed"  x="324" y="132" width="32" height="32" fill="black" />
<rect shape-rendering="optimizeSpeed"  x="356" y="132" width="32" height="32" fill="black" />
<rect shape-rendering="optimizeSpeed"  x="420" y="132" width="32" height="32" fill="black" />
<rect shape-rendering="optimizeSpeed"  x="452" y="132" width="32" height="32" fill="black" />
<rect shape-rendering="optimizeSpeed"  x="484" y="132" width="32" height="32" fill="black" />
<rect shape-rendering="optimizeSpeed"  x="580" y="132" width="32" height="32" fill="black" />
<rect shape-rendering="optimizeSpeed"  x="644" y="132" width="32" height="32" fill="black" />
<rect shape-rendering="optimizeSpeed"  x="740" y="132" width="32" height="32" fill="black" />
<rect shape-rendering="optimizeSpeed"  x="804" y="132" width="32" height="32" fill="black" />
<rect shape-rendering="optimizeSpeed"  x="836" y="132" width="32" height="32" fill="black" />
<rect shape-rendering="optimizeSpeed"  x="868" y="132" width="32" height="32" fill="black" />
<rect shape-rendering="optimizeSpeed"  x="932" y="132" width="32" height="32" fill="black" />
<rect shape-rendering="optimizeSpeed"  x="36" y="164" width="32" height="32" fill="black" />
<rect shape-rendering="optimizeSpeed"  x="100" y="164" width="32" height="32" fill="black" />
<rect shape-rendering="optimizeSpeed"  x="132" y="164" width="32" height="32" fill="black" />
<rect shape-rendering="optimizeSpeed"  x="164" y="164" width="32" height="32" fill="black" />
<rect shape-rendering="optimizeSpeed"  x="228" y="164" width="32" height="32" fill="black" />
<rect shape-rendering="optimizeSpeed"  x="324" y="164" width="32" height="32" fill="black" />
<rect shape-rendering="optimizeSpeed"  x="452" y="164" width="32" height="32" fill="black" />
<rect shape-rendering="optimizeSpeed"  x="548" y="164" width="32" height="32" fill="black" />
<rect shape-rendering="optimizeSpeed"  x="644" y="164" width="32" height="32" fill="black" />
<rect shape-rendering="optimizeSpeed"  x="676" y="164" width="32" height="32" fill="black" />
<rect shape-rendering="optimizeSpeed"  x="740" y="164" width="32" height="32" fill="black" />
<rect shape-rendering="optimizeSpeed"  x="804" y="164" width="32" height="32" fill="black" />
<rect shape-rendering="optimizeSpeed"  x="836" y="164" width="32" height="32" fill="black" />
<rect shape-rendering="optimizeSpeed"  x="868" y="164" width="32" height="32" fill="black" />
<rect shape-rendering="optimizeSpeed"  x="932" y="164" width="32" height="32" fill="black" />
<rect shape-rendering="optimizeSpeed"  x="36" y="196" width="32" height="32" fill="black" />
<rect shape-rendering="optimizeSpeed"  x="228" y="196" width="32" height="32" fill="black" />
<rect shape-rendering="optimizeSpeed"  x="292" y="196" width="32" height="32" fill="black" />
<rect shape-rendering="optimizeSpeed"  x="324" y="196" width="32" height="32" fill="black" />
<rect shape-rendering="optimizeSpeed"  x="388" y="196" width="32" height="32" fill="black" />
<rect shape-rendering="optimizeSpeed"  x="420" y="196" width="32" height="32" fill="black" />
<rect shape-rendering="optimizeSpeed"  x="484" y="196" width="32" height="32" fill="black" />
<rect shape-rendering="optimizeSpeed"  x="516" y="196" width="32" height="32" fill="black" />
<rect shape-rendering="optimizeSpeed"  x="548" y="196" width="32" height="32" fill="black" />
<rect shape-rendering="optimizeSpeed"  x="612" y="196" width="32" height="32" fill="black" />
<rect shape-rendering="optimizeSpeed"  x="740" y="196" width="32" height="32" fill="black" />
<rect shape-rendering="optimizeSpeed"  x="932" y="196" width="32" height="32" fill="black" />
<rect shape-rendering="optimizeSpeed"  x="36" y="228" width="32" height="32" fill="black" />
<rect shape-rendering="optimizeSpeed"  x="68" y="228" width="32" height="32" fill="black" />
<rect shape-rendering="optimizeSpeed"  x="100" y="228" width="32" height="32" fill="black" />
<rect shape-rendering="optimizeSpeed"  x="132" y="228" width="32" height="32" fill="black" />
<rect shape-rendering="optimizeSpeed"  x="164" y="228" width="32" height="32" fill="black" />
<rect shape-rendering="optimizeSpeed"  x="196" y="228" width="32" height="32" fill="black" />
<rect shape-rendering="optimizeSpeed"  x="228" y="228" width="32" height="32" fill="black" />
<rect shape-rendering="optimizeSpeed"  x="292" y="228" width="32" height="32" fill="black" />
<rect shape-rendering="optimizeSpeed"  x="356" y="228" width="32" height="32" fill="black" />
<rect shape-rendering="optimizeSpeed"  x="420" y="228" width="32" height="32" fill="black" />
<rect shape-rendering="optimizeSpeed"  x="484" y="228" width="32" height="32" fill="black" />
<rect shape-rendering="optimizeSpeed"  x="548" y="228" width="32" height="32" fill="black" />
<rect shape-rendering="optimizeSpeed"  x="612" y="228" width="32" height="32" fill="black" />
<rect shape-rendering="optimizeSpeed"  x="676" y="228" width="32" height="32" fill="black" />
<rect shape-rendering="optimizeSpeed"  x="740" y="228" width="32" height="32" fill="black" />
<rect shape-rendering="optimizeSpeed"  x="772" y="228" width="32" height="32" fill="black" />
<rect shape-rendering="optimizeSpeed"  x="804" y="228" width="32" height="32" fill="black" />
<rect shape-rendering="optimizeSpeed"  x="836" y="228" width="32" height="32" fill="black" />
<rect shape-rendering="optimizeSpeed"  x="868" y="228" width="32" height="32" fill="black" />
<rect shape-rendering="optimizeSpeed"  x="900" y="228" width="32" height="32" fill="black" />
<rect shape-rendering="optimizeSpeed"  x="932" y="228" width="32" height="32" fill="black" />
<rect shape-rendering="optimizeSpeed"  x="324" y="260" width="32" height="32" fill="black" />
<rect shape-rendering="optimizeSpeed"  x="356" y="260" width="32" height="32" fill="black" />
<rect shape-rendering="optimizeSpeed"  x="388" y="260" width="32" height="32" fill="black" />
<rect shape-rendering="optimizeSpeed"  x="516" y="260" width="32" height="32" fill="black" />
<rect shape-rendering="optimizeSpeed"  x="612" y="260" width="32" height="32" fill="black" />
<rect shape-rendering="optimizeSpeed"  x="644" y="260" width="32" height="32" fill="black" />
<rect shape-rendering="optimizeSpeed"  x="676" y="260" width="32" height="32" fill="black" />
<rect shape-rendering="optimizeSpeed"  x="36" y="292" width="32" height="32" fill="black" />
<rect shape-rendering="optimizeSpeed"  x="68" y="292" width="32" height="32" fill="black" />
<rect shape-rendering="optimizeSpeed"  x="100" y="292" width="32" height="32" fill="black" />
<rect shape-rendering="optimizeSpeed"  x="132" y="292" width="32" height="32" fill="black" />
<rect shape-rendering="optimizeSpeed"  x="164" y="292" width="32" height="32" fill="black" />
<rect shape-rendering="optimizeSpeed"  x="228" y="292" width="32" height="32" fill="black" />
<rect shape-rendering="optimizeSpeed"  x="260" y="292" width="32" height="32" fill="black" />
<rect shape-rendering="optimizeSpeed"  x="292" y="292" width="32" height="32" fill="black" />
<rect shape-rendering="optimizeSpeed"  x="324" y="292" width="32" height="32" fill="black" />
<rect shape-rendering="optimizeSpeed"  x="388" y="292" width="32" height="32" fill="black" />
<rect shape-rendering="optimizeSpeed"  x="452" y="292" width="32" height="32" fill="black" />
<rect shape-rendering="optimizeSpeed"  x="484" y="292" width="32" height="32" fill="black" />
<rect shape-rendering="optimizeSpeed"  x="516" y="292" width="32" height="32" fill="black" />
<rect shape-rendering="optimizeSpeed"  x="580" y="292" width="32" height="32" fill="black" />
<rect shape-rendering="optimizeSpeed"  x="644" y="292" width="32" height="32" fill="black" />
<rect shape-rendering="optimizeSpeed"  x="708" y="292" width="32" height="32" fill="black" />
<rect shape-rendering="optimizeSpeed"  x="772" y="292" width="32" height="32" fill="black" />
<rect shape-rendering="optimizeSpeed"  x="836" y="292" width="32" height="32" fill="black" />
<rect shape-rendering="optimizeSpeed"  x="900" y="292" width="32" height="32" fill="black" />
<rect shape-rendering="optimizeSpeed"  x="36" y="324" width="32" height="32" fill="black" />
<rect shape-rendering="optimizeSpeed"  x="100" y="324" width="32" height="32" fill="black" />
<rect shape-rendering="optimizeSpeed"  x="132" y="324" width="32" height="32" fill="black" />
<rect shape-rendering="optimizeSpeed"  x="356" y="324" width="32" height="32" fill="black" />
<rect shape-rendering="optimizeSpeed"  x="420" y="324" width="32" height="32" fill="black" />
<rect shape-rendering="optimizeSpeed"  x="452" y="324" width="32" height="32" fill="black" />
<rect shape-rendering="optimizeSpeed"  x="484" y="324" width="32" height="32" fill="black" />
<rect shape-rendering="optimizeSpeed"  x="548" y="324" width="32" height="32" fill="black" />
<rect shape-rendering="optimizeSpeed"  x="644" y="324" width="32" height="32" fill="black" />
<rect shape-rendering="optimizeSpeed"  x="676" y="324" width="32" height="32" fill="black" />
<rect shape-rendering="optimizeSpeed"  x="740" y="324" width="32" height="32" fill="black" />
<rect shape-rendering="optimizeSpeed"  x="772" y="324" width="32" height="32" fill="black" />
<rect shape-rendering="optimizeSpeed"  x="804" y="324" width="32" height="32" fill="black" />
<rect shape-rendering="optimizeSpeed"  x="932" y="324" width="32" height="32" fill="black" />
<rect shape-rendering="optimizeSpeed"  x="36" y="356" width="32" height="32" fill="black" />
<rect shape-rendering="optimizeSpeed"  x="68" y="356" width="32" height="32" fill="black" />
<rect shape-rendering="optimizeSpeed"  x="100" y="356" width="32" height="32" fill="black" />
<rect shape-rendering="optimizeSpeed"  x="164" y="356" width="32" height="32" fill="black" />
<rect shape-rendering="optimizeSpeed"  x="228" y="356" width="32" height="32" fill="black" />
<rect shape-rendering="optimizeSpeed"  x="260" y="356" width="32" height="32" fill="black" />
<rect shape-rendering="optimizeSpeed"  x="356" y="356" width="32" height="32" fill="black" />
<rect shape-rendering="optimizeSpeed"  x="516" y="356" width="32" height="32" fill="black" />
<rect shape-rendering="optimizeSpeed"  x="548" y="356" width="32" height="32" fill="black" />
<rect shape-rendering="optimizeSpeed"  x="580" y="356" width="32" height="32" fill="black" />
<rect shape-rendering="optimizeSpeed"  x="612" y="356" width="32" height="32" fill="black" />
<rect shape-rendering="optimizeSpeed"  x="676" y="356" width="32" height="32" fill="black" />
<rect shape-rendering="optimizeSpeed"  x="804" y="356" width="32" height="32" fill="black" />
<rect shape-rendering="optimizeSpeed"  x="36" y="388" width="32" height="32" fill="black" />
<rect shape-rendering="optimizeSpeed"  x="100" y="388" width="32" height="32" fill="black" />
<rect shape-rendering="optimizeSpeed"  x="132" y="388" width="32" height="32" fill="black" />
<rect shape-rendering="optimizeSpeed"  x="260" y="388" width="32" height="32" fill="black" />
<rect shape-rendering="optimizeSpeed"  x="292" y="388" width="32" height="32" fill="black" />
<rect shape-rendering="optimizeSpeed"  x="420" y="388" width="32" height="32" fill="black" />
<rect shape-rendering="optimizeSpeed"  x="484" y="388" width="32" height="32" fill="black" />
<rect shape-rendering="optimizeSpeed"  x="516" y="388" width="32" height="32" fill="black" />
<rect shape-rendering="optimizeSpeed"  x="548" y="388" width="32" height="32" fill="black" />
<rect shape-rendering="optimizeSpeed"  x="612" y="388" width="32" height="32" fill="black" />
<rect shape-rendering="optimizeSpeed"  x="644" y="388" width="32" height="32" fill="black" />
<rect shape-rendering="optimizeSpeed"  x="836" y="388" width="32" height="32" fill="black" />
<rect shape-rendering="optimizeSpeed"  x="900" y="388" width="32" height="32" fill="black" />
<rect shape-rendering="optimizeSpeed"  x="68" y="420" width="32" height="32" fill="black" />
<rect shape-rendering="optimizeSpeed"  x="132" y="420" width="32" height="32" fill="black" />
<rect shape-rendering="optimizeSpeed"  x="164" y="420" width="32" height="32" fill="black" />
<rect shape-rendering="optimizeSpeed"  x="196" y="420" width="32" height="32" fill="black" />
<rect shape-rendering="optimizeSpeed"  x="228" y="420" width="32" height="32" fill="black" />
<rect shape-rendering="optimizeSpeed"  x="260" y="420" width="32" height="32" fill="black" />
<rect shape-rendering="optimizeSpeed"  x="292" y="420" width="32" height="32" fill="black" />
<rect shape-rendering="optimizeSpeed"  x="324" y="420" width="32" height="32" fill="black" />
<rect shape-rendering="optimizeSpeed"  x="356" y="420" width="32" height="32" fill="black" />
<rect shape-rendering="optimizeSpeed"  x="420" y="420" width="32" height="32" fill="black" />
<rect shape-rendering="optimizeSpeed"  x="452" y="420" width="32" height="32" fill="black" />
<rect shape-rendering="optimizeSpeed"  x="484" y="420" width="32" height="32" fill="black" />
<rect shape-rendering="optimizeSpeed"  x="580" y="420" width="32" height="32" fill="black" />
<rect shape-rendering="optimizeSpeed"  x="644" y="420" width="32" height="32" fill="black" />
<rect shape-rendering="optimizeSpeed"  x="836" y="420" width="32" height="32" fill="black" />
<rect shape-rendering="optimizeSpeed"  x="868" y="420" width="32" height="32" fill="black" />
<rect shape-rendering="optimizeSpeed"  x="36" y="452" width="32" height="32" fill="black" />
<rect shape-rendering="optimizeSpeed"  x="100" y="452" width="32" height="32" fill="black" />
<rect shape-rendering="optimizeSpeed"  x="132" y="452" width="32" height="32" fill="black" />
<rect shape-rendering="optimizeSpeed"  x="484" y="452" width="32" height="32" fill="black" />
<rect shape-rendering="optimizeSpeed"  x="580" y="452" width="32" height="32" fill="black" />
<rect shape-rendering="optimizeSpeed"  x="644" y="452" width="32" height="32" fill="black" />
<rect shape-rendering="optimizeSpeed"  x="676" y="452" width="32" height="32" fill="black" />
<rect shape-rendering="optimizeSpeed"  x="708" y="452" width="32" height="32" fill="black" />
<rect shape-rendering="optimizeSpeed"  x="740" y="452" width="32" height="32" fill="black" />
<rect shape-rendering="optimizeSpeed"  x="772" y="452" width="32" height="32" fill="black" />
<rect shape-rendering="optimizeSpeed"  x="804" y="452" width="32" height="32" fill="black" />
<rect shape-rendering="optimizeSpeed"  x="932" y="452" width="32" height="32" fill="black" />
<rect shape-rendering="optimizeSpeed"  x="100" y="484" width="32" height="32" fill="black" />
<rect shape-rendering="optimizeSpeed"  x="132" y="484" width="32" height="32" fill="black" />
<rect shape-rendering="optimizeSpeed"  x="164" y="484" width="32" height="32" fill="black" />
<rect shape-rendering="optimizeSpeed"  x="228" y="484" width="32" height="32" fill="black" />
<rect shape-rendering="optimizeSpeed"  x="260" y="484" width="32" height="32" fill="black" />
<rect shape-rendering="optimizeSpeed"  x="324" y="484" width="32" height="32" fill="black" />
<rect shape-rendering="optimizeSpeed"  x="356" y="484" width="32" height="32" fill="black" />
<rect shape-rendering="optimizeSpeed"  x="388" y="484" width="32" height="32" fill="black" />
<rect shape-rendering="optimizeSpeed"  x="420" y="484" width="32" height="32" fill="black" />
<rect shape-rendering="optimizeSpeed"  x="452" y="484" width="32" height="32" fill="black" />
<rect shape-rendering="optimizeSpeed"  x="516" y="484" width="32" height="32" fill="black" />
<rect shape-rendering="optimizeSpeed"  x="548" y="484" width="32" height="32" fill="black" />
<rect shape-rendering="optimizeSpeed"  x="580" y="484" width="32" height="32" fill="black" />
<rect shape-rendering="optimizeSpeed"  x="612" y="484" width="32" height="32" fill="black" />
<rect shape-rendering="optimizeSpeed"  x="676" y="484" width="32" height="32" fill="black" />
<rect shape-rendering="optimizeSpeed"  x="708" y="484" width="32" height="32" fill="black" />
<rect shape-rendering="optimizeSpeed"  x="804" y="484" width="32" height="32" fill="black" />
<rect shape-rendering="optimizeSpeed"  x="836" y="484" width="32" height="32" fill="black" />
<rect shape-rendering="optimizeSpeed"  x="868" y="484" width="32" height="32" fill="black" />
<rect shape-rendering="optimizeSpeed"  x="100" y="516" width="32" height="32" fill="black" />
<rect shape-rendering="optimizeSpeed"  x="292" y="516" width="32" height="32" fill="black" />
<rect shape-rendering="optimizeSpeed"  x="356" y="516" width="32" height="32" fill="black" />
<rect shape-rendering="optimizeSpeed"  x="388" y="516" width="32" height="32" fill="black" />
<rect shape-rendering="optimizeSpeed"  x="484" y="516" width="32" height="32" fill="black" />
<rect shape-rendering="optimizeSpeed"  x="516" y="516" width="32" height="32" fill="black" />
<rect shape-rendering="optimizeSpeed"  x="612" y="516" width="32" height="32" fill="black" />
<rect shape-rendering="optimizeSpeed"  x="644" y="516" width="32" height="32" fill="black" />
<rect shape-rendering="optimizeSpeed"  x="676" y="516" width="32" height="32" fill="black" />
<rect shape-rendering="optimizeSpeed"  x="708" y="516" width="32" height="32" fill="black" />
<rect shape-rendering="optimizeSpeed"  x="740" y="516" width="32" height="32" fill="black" />
<rect shape-rendering="optimizeSpeed"  x="772" y="516" width="32" height="32" fill="black" />
<rect shape-rendering="optimizeSpeed"  x="804" y="516" width="32" height="32" fill="black" />
<rect shape-rendering="optimizeSpeed"  x="900" y="516" width="32" height="32" fill="black" />
<rect shape-rendering="optimizeSpeed"  x="36" y="548" width="32" height="32" fill="black" />
<rect shape-rendering="optimizeSpeed"  x="228" y="548" width="32" height="32" fill="black" />
<rect shape-rendering="optimizeSpeed"  x="292" y="548" width="32" height="32" fill="black" />
<rect shape-rendering="optimizeSpeed"  x="388" y="548" width="32" height="32" fill="black" />
<rect shape-rendering="optimizeSpeed"  x="452" y="548" width="32" height="32" fill="black" />
<rect shape-rendering="optimizeSpeed"  x="484" y="548" width="32" height="32" fill="black" />
<rect shape-rendering="optimizeSpeed"  x="516" y="548" width="32" height="32" fill="black" />
<rect shape-rendering="optimizeSpeed"  x="580" y="548" width="32" height="32" fill="black" />
<rect shape-rendering="optimizeSpeed"  x="612" y="548" width="32" height="32" fill="black" />
<rect shape-rendering="optimizeSpeed"  x="644" y="548" width="32" height="32" fill="black" />
<rect shape-rendering="optimizeSpeed"  x="708" y="548" width="32" height="32" fill="black" />
<rect shape-rendering="optimizeSpeed"  x="772" y="548" width="32" height="32" fill="black" />
<rect shape-rendering="optimizeSpeed"  x="836" y="548" width="32" height="32" fill="black" />
<rect shape-rendering="optimizeSpeed"  x="868" y="548" width="32" height="32" fill="black" />
<rect shape-rendering="optimizeSpeed"  x="36" y="580" width="32" height="32" fill="black" />
<rect shape-rendering="optimizeSpeed"  x="132" y="580" width="32" height="32" fill="black" />
<rect shape-rendering="optimizeSpeed"  x="164" y="580" width="32" height="32" fill="black" />
<rect shape-rendering="optimizeSpeed"  x="196" y="580" width="32" height="32" fill="black" />
<rect shape-rendering="optimizeSpeed"  x="292" y="580" width="32" height="32" fill="black" />
<rect shape-rendering="optimizeSpeed"  x="324" y="580" width="32" height="32" fill="black" />
<rect shape-rendering="optimizeSpeed"  x="356" y="580" width="32" height="32" fill="black" />
<rect shape-rendering="optimizeSpeed"  x="420" y="580" width="32" height="32" fill="black" />
<rect shape-rendering="optimizeSpeed"  x="452" y="580" width="32" height="32" fill="black" />
<rect shape-rendering="optimizeSpeed"  x="548" y="580" width="32" height="32" fill="black" />
<rect shape-rendering="optimizeSpeed"  x="580" y="580" width="32" height="32" fill="black" />
<rect shape-rendering="optimizeSpeed"  x="612" y="580" width="32" height="32" fill="black" />
<rect shape-rendering="optimizeSpeed"  x="644" y="580" width="32" height="32" fill="black" />
<rect shape-rendering="optimizeSpeed"  x="708" y="580" width="32" height="32" fill="black" />
<rect shape-rendering="optimizeSpeed"  x="740" y="580" width="32" height="32" fill="black" />
<rect shape-rendering="optimizeSpeed"  x="772" y="580" width="32" height="32" fill="black" />
<rect shape-rendering="optimizeSpeed"  x="804" y="580" width="32" height="32" fill="black" />
<rect shape-rendering="optimizeSpeed"  x="868" y="580" width="32" height="32" fill="black" />
<rect shape-rendering="optimizeSpeed"  x="932" y="580" width="32" height="32" fill="black" />
<rect shape-rendering="optimizeSpeed"  x="36" y="612" width="32" height="32" fill="black" />
<rect shape-rendering="optimizeSpeed"  x="100" y="612" width="32" height="32" fill="black" />
<rect shape-rendering="optimizeSpeed"  x="228" y="612" width="32" height="32" fill="black" />
<rect shape-rendering="optimizeSpeed"  x="260" y="612" width="32" height="32" fill="black" />
<rect shape-rendering="optimizeSpeed"  x="292" y="612" width="32" height="32" fill="black" />
<rect shape-rendering="optimizeSpeed"  x="516" y="612" width="32" height="32" fill="black" />
<rect shape-rendering="optimizeSpeed"  x="580" y="612" width="32" height="32" fill="black" />
<rect shape-rendering="optimizeSpeed"  x="676" y="612" width="32" height="32" fill="black" />
<rect shape-rendering="optimizeSpeed"  x="740" y="612" width="32" height="32" fill="black" />
<rect shape-rendering="optimizeSpeed"  x="772" y="612" width="32" height="32" fill="black" />
<rect shape-rendering="optimizeSpeed"  x="804" y="612" width="32" height="32" fill="black" />
<rect shape-rendering="optimizeSpeed"  x="868" y="612" width="32" height="32" fill="black" />
<rect shape-rendering="optimizeSpeed"  x="36" y="644" width="32" height="32" fill="black" />
<rect shape-rendering="optimizeSpeed"  x="132" y="644" width="32" height="32" fill="black" />
<rect shape-rendering="optimizeSpeed"  x="196" y="644" width="32" height="32" fill="black" />
<rect shape-rendering="optimizeSpeed"  x="260" y="644" width="32" height="32" fill="black" />
<rect shape-rendering="optimizeSpeed"  x="292" y="644" width="32" height="32" fill="black" />
<rect shape-rendering="optimizeSpeed"  x="324" y="644" width="32" height="32" fill="black" />
<rect shape-rendering="optimizeSpeed"  x="356" y="644" width="32" height="32" fill="black" />
<rect shape-rendering="optimizeSpeed"  x="420" y="644" width="32" height="32" fill="black" />
<rect shape-rendering="optimizeSpeed"  x="484" y="644" width="32" height="32" fill="black" />
<rect shape-rendering="optimizeSpeed"  x="548" y="644" width="32" height="32" fill="black" />
<rect shape-rendering="optimizeSpeed"  x="676" y="644" width="32" height="32" fill="black" />
<rect shape-rendering="optimizeSpeed"  x="708" y="644" width="32" height="32" fill="black" />
<rect shape-rendering="optimizeSpeed"  x="740" y="644" width="32" height="32" fill="black" />
<rect shape-rendering="optimizeSpeed"  x="900" y="644" width="32" height="32" fill="black" />
<rect shape-rendering="optimizeSpeed"  x="36" y="676" width="32" height="32" fill="black" />
<rect shape-rendering="optimizeSpeed"  x="100" y="676" width="32" height="32" fill="black" />
<rect shape-rendering="optimizeSpeed"  x="132" y="676" width="32" height="32" fill="black" />
<rect shape-rendering="optimizeSpeed"  x="164" y="676" width="32" height="32" fill="black" />
<rect shape-rendering="optimizeSpeed"  x="228" y="676" width="32" height="32" fill="black" />
<rect shape-rendering="optimizeSpeed"  x="292" y="676" width="32" height="32" fill="black" />
<rect shape-rendering="optimizeSpeed"  x="356" y="676" width="32" height="32" fill="black" />
<rect shape-rendering="optimizeSpeed"  x="420" y="676" width="32" height="32" fill="black" />
<rect shape-rendering="optimizeSpeed"  x="452" y="676" width="32" height="32" fill="black" />
<rect shape-rendering="optimizeSpeed"  x="484" y="676" width="32" height="32" fill="black" />
<rect shape-rendering="optimizeSpeed"  x="580" y="676" width="32" height="32" fill="black" />
<rect shape-rendering="optimizeSpeed"  x="644" y="676" width="32" height="32" fill="black" />
<rect shape-rendering="optimizeSpeed"  x="676" y="676" width="32" height="32" fill="black" />
<rect shape-rendering="optimizeSpeed"  x="708" y="676" width="32" height="32" fill="black" />
<rect shape-rendering="optimizeSpeed"  x="740" y="676" width="32" height="32" fill="black" />
<rect shape-rendering="optimizeSpeed"  x="772" y="676" width="32" height="32" fill="black" />
<rect shape-rendering="optimizeSpeed"  x="804" y="676" width="32" height="32" fill="black" />
<rect shape-rendering="optimizeSpeed"  x="868" y="676" width="32" height="32" fill="black" />
<rect shape-rendering="optimizeSpeed"  x="900" y="676" width="32" height="32" fill="black" />
<rect shape-rendering="optimizeSpeed"  x="932" y="676" width="32" height="32" fill="black" />
<rect shape-rendering="optimizeSpeed"  x="292" y="708" width="32" height="32" fill="black" />
<rect shape-rendering="optimizeSpeed"  x="484" y="708" width="32" height="32" fill="black" />
<rect shape-rendering="optimizeSpeed"  x="548" y="708" width="32" height="32" fill="black" />
<rect shape-rendering="optimizeSpeed"  x="612" y="708" width="32" height="32" fill="black" />
<rect shape-rendering="optimizeSpeed"  x="676" y="708" width="32" height="32" fill="black" />
<rect shape-rendering="optimizeSpeed"  x="804" y="708" width="32" height="32" fill="black" />
<rect shape-rendering="optimizeSpeed"  x="836" y="708" width="32" height="32" fill="black" />
<rect shape-rendering="optimizeSpeed"  x="868" y="708" width="32" height="32" fill="black" />
<rect shape-rendering="optimizeSpeed"  x="900" y="708" width="32" height="32" fill="black" />
<rect shape-rendering="optimizeSpeed"  x="932" y="708" width="32" height="32" fill="black" />
<rect shape-rendering="optimizeSpeed"  x="36" y="740" width="32" height="32" fill="black" />
<rect shape-rendering="optimizeSpeed"  x="68" y="740" width="32" height="32" fill="black" />
<rect shape-rendering="optimizeSpeed"  x="100" y="740" width="32" height="32" fill="black" />
<rect shape-rendering="optimizeSpeed"  x="132" y="740" width="32" height="32" fill="black" />
<rect shape-rendering="optimizeSpeed"  x="164" y="740" width="32" height="32" fill="black" />
<rect shape-rendering="optimizeSpeed"  x="196" y="740" width="32" height="32" fill="black" />
<rect shape-rendering="optimizeSpeed"  x="228" y="740" width="32" height="32" fill="black" />
<rect shape-rendering="optimizeSpeed"  x="292" y="740" width="32" height="32" fill="black" />
<rect shape-rendering="optimizeSpeed"  x="356" y="740" width="32" height="32" fill="black" />
<rect shape-rendering="optimizeSpeed"  x="388" y="740" width="32" height="32" fill="black" />
<rect shape-rendering="optimizeSpeed"  x="420" y="740" width="32" height="32" fill="black" />
<rect shape-rendering="optimizeSpeed"  x="452" y="740" width="32" height="32" fill="black" />
<rect shape-rendering="optimizeSpeed"  x="516" y="740" width="32" height="32" fill="black" />
<rect shape-rendering="optimizeSpeed"  x="548" y="740" width="32" height="32" fill="black" />
<rect shape-rendering="optimizeSpeed"  x="580" y="740" width="32" height="32" fill="black" />
<rect shape-rendering="optimizeSpeed"  x="612" y="740" width="32" height="32" fill="black" />
<rect shape-rendering="optimizeSpeed"  x="644" y="740" width="32" height="32" fill="black" />
<rect shape-rendering="optimizeSpeed"  x="676" y="740" width="32" height="32" fill="black" />
<rect shape-rendering="optimizeSpeed"  x="740" y="740" width="32" height="32" fill="black" />
<rect shape-rendering="optimizeSpeed"  x="804" y="740" width="32" height="32" fill="black" />
<rect shape-rendering="optimizeSpeed"  x="836" y="740" width="32" height="32" fill="black" />
<rect shape-rendering="optimizeSpeed"  x="868" y="740" width="32" height="32" fill="black" />
<rect shape-rendering="optimizeSpeed"  x="36" y="772" width="32" height="32" fill="black" />
<rect shape-rendering="optimizeSpeed"  x="228" y="772" width="32" height="32" fill="black" />
<rect shape-rendering="optimizeSpeed"  x="324" y="772" width="32" height="32" fill="black" />
<rect shape-rendering="optimizeSpeed"  x="388" y="772" width="32" height="32" fill="black" />
<rect shape-rendering="optimizeSpeed"  x="484" y="772" width="32" height="32" fill="black" />
<rect shape-rendering="optimizeSpeed"  x="548" y="772" width="32" height="32" fill="black" />
<rect shape-rendering="optimizeSpeed"  x="644" y="772" width="32" height="32" fill="black" />
<rect shape-rendering="optimizeSpeed"  x="676" y="772" width="32" height="32" fill="black" />
<rect shape-rendering="optimizeSpeed"  x="804" y="772" width="32" height="32" fill="black" />
<rect shape-rendering="optimizeSpeed"  x="900" y="772" width="32" height="32" fill="black" />
<rect shape-rendering="optimizeSpeed"  x="36" y="804" width="32" height="32" fill="black" />
<rect shape-rendering="optimizeSpeed"  x="100" y="804" width="32" height="32" fill="black" />
<rect shape-rendering="optimizeSpeed"  x="132" y="804" width="32" height="32" fill="black" />
<rect shape-rendering="optimizeSpeed"  x="164" y="804" width="32" height="32" fill="black" />
<rect shape-rendering="optimizeSpeed"  x="228" y="804" width="32" height="32" fill="black" />
<rect shape-rendering="optimizeSpeed"  x="292" y="804" width="32" height="32" fill="black" />
<rect shape-rendering="optimizeSpeed"  x="324" y="804" width="32" height="32" fill="black" />
<rect shape-rendering="optimizeSpeed"  x="356" y="804" width="32" height="32" fill="black" />
<rect shape-rendering="optimizeSpeed"  x="388" y="804" width="32" height="32" fill="black" />
<rect shape-rendering="optimizeSpeed"  x="420" y="804" width="32" height="32" fill="black" />
<rect shape-rendering="optimizeSpeed"  x="452" y="804" width="32" height="32" fill="black" />
<rect shape-rendering="optimizeSpeed"  x="580" y="804" width="32" height="32" fill="black" />
<rect shape-rendering="optimizeSpeed"  x="676" y="804" width="32" height="32" fill="black" />
<rect shape-rendering="optimizeSpeed"  x="708" y="804" width="32" height="32" fill="black" />
<rect shape-rendering="optimizeSpeed"  x="740" y="804" width="32" height="32" fill="black" />
<rect shape-rendering="optimizeSpeed"  x="772" y="804" width="32" height="32" fill="black" />
<rect shape-rendering="optimizeSpeed"  x="804" y="804" width="32" height="32" fill="black" />
<rect shape-rendering="optimizeSpeed"  x="868" y="804" width="32" height="32" fill="black" />
<rect shape-rendering="optimizeSpeed"  x="932" y="804" width="32" height="32" fill="black" />
<rect shape-rendering="optimizeSpeed"  x="36" y="836" width="32" height="32" fill="black" />
<rect shape-rendering="optimizeSpeed"  x="100" y="836" width="32" height="32" fill="black" />
<rect shape-rendering="optimizeSpeed"  x="132" y="836" width="32" height="32" fill="black" />
<rect shape-rendering="optimizeSpeed"  x="164" y="836" width="32" height="32" fill="black" />
<rect shape-rendering="optimizeSpeed"  x="228" y="836" width="32" height="32" fill="black" />
<rect shape-rendering="optimizeSpeed"  x="292" y="836" width="32" height="32" fill="black" />
<rect shape-rendering="optimizeSpeed"  x="324" y="836" width="32" height="32" fill="black" />
<rect shape-rendering="optimizeSpeed"  x="356" y="836" width="32" height="32" fill="black" />
<rect shape-rendering="optimizeSpeed"  x="420" y="836" width="32" height="32" fill="black" />
<rect shape-rendering="optimizeSpeed"  x="452" y="836" width="32" height="32" fill="black" />
<rect shape-rendering="optimizeSpeed"  x="548" y="836" width="32" height="32" fill="black" />
<rect shape-rendering="optimizeSpeed"  x="580" y="836" width="32" height="32" fill="black" />
<rect shape-rendering="optimizeSpeed"  x="612" y="836" width="32" height="32" fill="black" />
<rect shape-rendering="optimizeSpeed"  x="644" y="836" width="32" height="32" fill="black" />
<rect shape-rendering="optimizeSpeed"  x="676" y="836" width="32" height="32" fill="black" />
<rect shape-rendering="optimizeSpeed"  x="836" y="836" width="32" height="32" fill="black" />
<rect shape-rendering="optimizeSpeed"  x="868" y="836" width="32" height="32" fill="black" />
<rect shape-rendering="optimizeSpeed"  x="900" y="836" width="32" height="32" fill="black" />
<rect shape-rendering="optimizeSpeed"  x="932" y="836" width="32" height="32" fill="black" />
<rect shape-rendering="optimizeSpeed"  x="36" y="868" width="32" height="32" fill="black" />
<rect shape-rendering="optimizeSpeed"  x="100" y="868" width="32" height="32" fill="black" />
<rect shape-rendering="optimizeSpeed"  x="132" y="868" width="32" height="32" fill="black" />
<rect shape-rendering="optimizeSpeed"  x="164" y="868" width="32" height="32" fill="black" />
<rect shape-rendering="optimizeSpeed"  x="228" y="868" width="32" height="32" fill="black" />
<rect shape-rendering="optimizeSpeed"  x="292" y="868" width="32" height="32" fill="black" />
<rect shape-rendering="optimizeSpeed"  x="484" y="868" width="32" height="32" fill="black" />
<rect shape-rendering="optimizeSpeed"  x="516" y="868" width="32" height="32" fill="black" />
<rect shape-rendering="optimizeSpeed"  x="580" y="868" width="32" height="32" fill="black" />
<rect shape-rendering="optimizeSpeed"  x="644" y="868" width="32" height="32" fill="black" />
<rect shape-rendering="optimizeSpeed"  x="676" y="868" width="32" height="32" fill="black" />
<rect shape-rendering="optimizeSpeed"  x="708" y="868" width="32" height="32" fill="black" />
<rect shape-rendering="optimizeSpeed"  x="740" y="868" width="32" height="32" fill="black" />
<rect shape-rendering="optimizeSpeed"  x="772" y="868" width="32" height="32" fill="black" />
<rect shape-rendering="optimizeSpeed"  x="804" y="868" width="32" height="32" fill="black" />
<rect shape-rendering="optimizeSpeed"  x="836" y="868" width="32" height="32" fill="black" />
<rect shape-rendering="optimizeSpeed"  x="868" y="868" width="32" height="32" fill="black" />
<rect shape-rendering="optimizeSpeed"  x="900" y="868" width="32" height="32" fill="black" />
<rect shape-rendering="optimizeSpeed"  x="36" y="900" width="32" height="32" fill="black" />
<rect shape-rendering="optimizeSpeed"  x="228" y="900" width="32" height="32" fill="black" />
<rect shape-rendering="optimizeSpeed"  x="292" y="900" width="32" height="32" fill="black" />
<rect shape-rendering="optimizeSpeed"  x="420" y="900" width="32" height="32" fill="black" />
<rect shape-rendering="optimizeSpeed"  x="484" y="900" width="32" height="32" fill="black" />
<rect shape-rendering="optimizeSpeed"  x="676" y="900" width="32" height="32" fill="black" />
<rect shape-rendering="optimizeSpeed"  x="708" y="900" width="32" height="32" fill="black" />
<rect shape-rendering="optimizeSpeed"  x="772" y="900" width="32" height="32" fill="black" />
<rect shape-rendering="optimizeSpeed"  x="836" y="900" width="32" height="32" fill="black" />
<rect shape-rendering="optimizeSpeed"  x="900" y="900" width="32" height="32" fill="black" />
<rect shape-rendering="optimizeSpeed"  x="36" y="932" width="32" height="32" fill="black" />
<rect shape-rendering="optimizeSpeed"  x="68" y="932" width="32" height="32" fill="black" />
<rect shape-rendering="optimizeSpeed"  x="100" y="932" width="32" height="32" fill="black" />
<rect shape-rendering="optimizeSpeed"  x="132" y="932" width="32" height="32" fill="black" />
<rect shape-rendering="optimizeSpeed"  x="164" y="932" width="32" height="32" fill="black" />
<rect shape-rendering="optimizeSpeed"  x="196" y="932" width="32" height="32" fill="black" />
<rect shape-rendering="optimizeSpeed"  x="228" y="932" width="32" height="32" fill="black" />
<rect shape-rendering="optimizeSpeed"  x="292" y="932" width="32" height="32" fill="black" />
<rect shape-rendering="optimizeSpeed"  x="324" y="932" width="32" height="32" fill="black" />
<rect shape-rendering="optimizeSpeed"  x="356" y="932" width="32" height="32" fill="black" />
<rect shape-rendering="optimizeSpeed"  x="452" y="932" width="32" height="32" fill="black" />
<rect shape-rendering="optimizeSpeed"  x="516" y="932" width="32" height="32" fill="black" />
<rect shape-rendering="optimizeSpeed"  x="548" y="932" width="32" height="32" fill="black" />
<rect shape-rendering="optimizeSpeed"  x="580" y="932" width="32" height="32" fill="black" />
<rect shape-rendering="optimizeSpeed"  x="644" y="932" width="32" height="32" fill="black" />
<rect shape-rendering="optimizeSpeed"  x="740" y="932" width="32" height="32" fill="black" />
<rect shape-rendering="optimizeSpeed"  x="772" y="932" width="32" height="32" fill="black" />
<rect shape-rendering="optimizeSpeed"  x="804" y="932" width="32" height="32" fill="black" />
<rect shape-rendering="optimizeSpeed"  x="868" y="932" width="32" height="32" fill="black" /></svg>